<svg version="1.1" id="Layer_1" xmlns="http://www.w3.org/2000/svg" xmlns:xlink="http://www.w3.org/1999/xlink" x="0px" y="0px" viewBox="0 0 50 50" style="enable-background:new 0 0 50 50;" preserveAspectRatio="xMidYMid meet" xml:space="preserve">
<path d="M13,29.5c-5.6,0-10.2,4.6-10.2,10.2S7.4,50,13,50s10.2-4.6,10.2-10.2S18.7,29.5,13,29.5z M13,44.8
	c-2.8,0-5-2.3-5-5c0-2.8,2.3-5,5-5s5,2.3,5,5C18.1,42.5,15.8,44.8,13,44.8z"/>
<path d="M48.1,36.2h-1v-6c0-3.4-2.3-6.3-5.5-7.2v-9c0-0.5,0.4-0.9,0.9-0.9h1.3V9.5h-2.1c-2,0-3.6,1.6-3.6,3.6V22
	l-7.8-2.1l-0.8-5.3l-0.9-6.3c1.1,0,2-0.9,2-2V4.9H1.9v3.5h1.9v16.6C2.4,25.9,1.1,27,0,28.3c0,0,1.6,1.5,2.8,2.8c2.4-3,6.1-5,10.2-5
	c0,0,0.1,0,0.1,0c0.3,0,0.5,0,0.8,0c1.4,0.1,2.8,0.4,4.2,1c4.7,2,7.7,6.8,7.7,11.9v0v3.8h6.9c0,3.1,1.9,5.9,4.8,6.8
	c5,1.6,9.6-2.1,9.6-6.8H50v-4.6C50,37.1,49.1,36.2,48.1,36.2z M25.9,28.1c-2.7-3.2-6.7-5.3-11.1-5.8V8.3h10.4l2.9,19.7H25.9z
	 M39.9,44.8c-1.1,0-2-0.9-2-2s0.9-2,2-2c1.1,0,2,0.9,2,2S41,44.8,39.9,44.8z"/>
</svg>
