<svg version="1.1" xmlns="http://www.w3.org/2000/svg" xmlns:xlink="http://www.w3.org/1999/xlink" x="0px" y="0px" viewBox="0 0 50 50" style="enable-background:new 0 0 50 50;" preserveAspectRatio="xMidYMid meet" xml:space="preserve">
<g>
	<polygon points="50,25 25,0 25,0 25,0 13.7,11.3 13.7,0 6.8,0 6.8,18.2 0,25 4.9,29.9 25,9.8 45.1,29.9 	"/>
	<path d="M25.1,14.7L7.3,32.5L7.4,50h35.2l0.2-17.7L25.1,14.7z M26.6,45.1v2.6h-3.1v-2.6c-3.8-0.5-5.8-2.8-5.8-2.8
		l2.6-3.8c0,0,2.3,2.1,4.9,2.1c1,0,2.1-0.4,2.1-1.6c0-2.3-9.3-2.5-9.3-8.6c0-3.2,2.3-5.5,5.5-6.1v-2.7h3.1v2.6
		c3.5,0.4,5.2,2.2,5.2,2.2l-2.1,4.1c0,0-2.1-1.8-4.5-1.8c-1,0-2.2,0.5-2.2,1.6c0,2.4,9.3,2.3,9.3,8.6C32.3,42,30.3,44.6,26.6,45.1z"
		/>
</g>
</svg>
