<svg version="1.1" xmlns="http://www.w3.org/2000/svg" xmlns:xlink="http://www.w3.org/1999/xlink" x="0px" y="0px" viewBox="0 0 50 50" style="enable-background:new 0 0 50 50;" preserveAspectRatio="xMidYMid meet" xml:space="preserve">
<g>
	<path d="M47.7,33.5c-3.4-1.3-7.2-0.3-9.7,2.4c-3.2,3.5-7.9,5.7-13.2,5.7c-5.3,0-10-2.2-13.2-5.7
		c-2.5-2.7-6.3-3.7-9.7-2.4l0,0c3.6,8.7,12.5,14.9,22.9,14.9C35.3,48.4,44.2,42.2,47.7,33.5L47.7,33.5z"/>
</g>
<path d="M48.8,13.6c-2.1-3.1-3.7-7.8-7.1-7.3c0.9-0.6,0.4-2,0.2-2.5c-0.5-1.3,0-2-0.4-2.1c-0.3-0.2-3,1.4-2.7,5
	C37.2,6.9,32,8.3,28,13c0,0,0,0,0,0c-1.9,1.9-8.9-0.3-11.7-0.3c-1.2,0-2.4,0.3-3.4,0.9c-0.2-2.4-1.7-9-6.6-6.9
	C0,9.5,5.8,19.6,0.3,22.2c0,0,7.5,2.5,7.6-5.2c0-4.6,2.2-2.7,3.1-1.8c-1.1,1.3-1.7,2.9-1.7,4.7c0,1.5,0.4,2.8,1.2,3.9
	c0.4,0.6,0.5,1.2,0.4,1.9l-0.7,4.4c-0.1,0.4,0.1,0.8,0.5,0.9c2.6,1.3,3.7,2.9,3.7,2.9l0,0c0.4-2.8,2.1-5.4,4.7-6.6
	c7.1-3.5,14.1,1.6,14.2,8.3c1.9-1.9,3.3-3,4-3.5c0.3-0.2,0.4-0.5,0.4-0.9l-1-6.6c-0.1-0.4,0-0.8,0.2-1.1c0.7-1.1,1.1-2.4,1.1-3.8
	c0-1.5,0.6-2.8,1.3-3.8c0.6-0.8,1.8-0.8,2.4,0c1.2,1.3,2.4,1.9,3.5,2.2C47.7,18.9,51.1,16.9,48.8,13.6z"/>
</svg>
