<svg version="1.1" xmlns="http://www.w3.org/2000/svg" xmlns:xlink="http://www.w3.org/1999/xlink" x="0px" y="0px" viewBox="0 0 50 50" style="enable-background:new 0 0 50 50;" preserveAspectRatio="xMidYMid meet" xml:space="preserve">
<path d="M43.7,18.2L33.1,28.8L21.2,16.9L31.8,6.3L43.7,18.2z"/>
<path d="M45.7,43.1L45.7,43.1c0-1.9-1.5-3.4-3.4-3.4H30.4c-1.9,0-3.4,1.5-3.4,3.4v0h-0.7c-1.9,0-3.4,1.5-3.4,3.4V50
	h27.1v-3.5c0-1.9-1.5-3.4-3.4-3.4H45.7z"/>
<path d="M22.4,22.8L1.5,41.9c-1.9,1.7-2,4.7-0.2,6.6l0,0c1.8,1.8,4.8,1.8,6.5-0.1l19.3-20.7L22.4,22.8z"/>
<path d="M17.8,15.5L30.5,2.8l-1.4-1.4c-1.8-1.8-4.8-1.8-6.6,0l-6.1,6.1c-1.8,1.8-1.8,4.8,0,6.6L17.8,15.5z"/>
<path d="M47.2,19.5L34.5,32.3l1.4,1.4c1.8,1.8,4.8,1.8,6.6,0l6.1-6.1c1.8-1.8,1.8-4.8,0-6.6L47.2,19.5z"/>
</svg>
