<svg version="1.1" xmlns="http://www.w3.org/2000/svg" xmlns:xlink="http://www.w3.org/1999/xlink" x="0px" y="0px" viewBox="0 0 50 50" style="enable-background:new 0 0 50 50;" preserveAspectRatio="xMidYMid meet" xml:space="preserve">
<path d="M37.1,0C32,0,27.5,3.3,25.5,8.2h-1.8c-1.8,0-3.3,1.5-3.3,3.3v5.8c0,1.8,1.5,3.3,3.3,3.3h1.8
	c2.1,4.8,6.5,8.2,11.6,8.2c7.1,0,12.9-6.4,12.9-14.3S44.2,0,37.1,0z M37.3,25.2c-5.1,0-9.3-4.9-9.3-10.8c0-6,4.1-10.8,9.3-10.8
	s9.3,4.9,9.3,10.8C46.5,20.4,42.4,25.2,37.3,25.2z"/>
<path d="M28.7,37.1c0-5.1-3.3-9.6-8.2-11.6v-1.8c0-1.8-1.5-3.3-3.3-3.3h-5.8c-1.8,0-3.3,1.5-3.3,3.3v1.8
	C3.3,27.5,0,32,0,37.1C0,44.2,6.4,50,14.3,50S28.7,44.2,28.7,37.1z M3.5,37.3c0-5.1,4.9-9.3,10.8-9.3c6,0,10.8,4.1,10.8,9.3
	s-4.9,9.3-10.8,9.3C8.3,46.5,3.5,42.4,3.5,37.3z"/>
<path d="M27,12.7H16h0c-1.9,0-3.5,1.5-3.5,3.5v0V27H16V17c0-0.5,0.4-0.9,0.9-0.9H27V12.7z"/>
</svg>
