<svg version="1.1" xmlns="http://www.w3.org/2000/svg" xmlns:xlink="http://www.w3.org/1999/xlink" x="0px" y="0px" viewBox="0 0 110 120" style="enable-background:new 0 0 110 120;" preserveAspectRatio="xMidYMid meet" xml:space="preserve">
<g class="icon-bg">
	<circle fill="none" cx="55" cy="81.2" r="38.8"/>
</g>
<g class="icon cta-man">
	<path d="M75.4,93.1c-0.6-4-4.9-4.8-8.4-5.8l-3.5-0.9l-0.1,8.1l-8.4-6.1l-8.4,6.1l-0.1-8.2l-3.5,1
		c-3.5,1-7.8,1.7-8.4,5.8l-3,19.2c6.6,4.8,14.6,7.6,23.4,7.6c8.7,0,16.8-2.8,23.4-7.6L75.4,93.1z M52.1,109.1l-3.2-12L52,95
		c0,0,0.8,1.6,1.8,2.2L52.1,109.1z M58,109.1l-1.7-11.9c1-0.6,1.8-2.2,1.8-2.2l3.1,2.2L58,109.1z"/>
	<path d="M67.9,62.7l0.4-5.2c0.2-2-0.2-3.8-1.1-5.4c2.3-4.1-0.3-9.6-11-9.6c-7.6,0-10.8,7.6-16.1,5.7c0,0-1.8,5,1.5,8
		c0,0.5,0,1.1,0,1.6l0.5,4.9c-2.5,0.1-3.6,2.2-3.6,4.8c0,2.7,1.2,4.9,3.9,4.9c0.3,0,1.6,0,1.8-0.1l0.1,0.6c0.4,3.3,1.3,6.2,4.1,7.7
		v5.1c0,0,3.1,2.7,6.5,2.7c3.4,0,6.5-2.7,6.5-2.7v-4.9c3-1.6,4.2-4.6,4.5-8.3l0-0.3c0.1,0,1.3,0,1.4,0c2.7,0,3.9-2.2,3.9-4.9
		C71.4,65,70.3,62.9,67.9,62.7z"/>
</g>
</svg>
