<svg version="1.1" xmlns="http://www.w3.org/2000/svg" xmlns:xlink="http://www.w3.org/1999/xlink" x="0px" y="0px" viewBox="0 0 110 120" style="enable-background:new 0 0 110 120;" preserveAspectRatio="xMidYMid meet" xml:space="preserve">
<g class="icon-bg">
	<circle fill="none" cx="55" cy="81.2" r="38.8"/>
</g>
<g class="icon cta-megaphone">
	<path d="M56.9,78.4c-2.7-6.7-3.7-13.4-3.1-19.1c0.1-0.7-0.7-1-1.2-0.5C46.2,66.6,38,72.9,28.5,76.8l0,0
		c-3.2,1.3-5.2,4.1-5.7,7.3c-0.1,0.8-0.7,1.6-1.4,1.9l0,0c-1.8,0.7-2.7,2.8-1.9,4.6l2.1,5.2c0.7,1.7,2.5,2.6,4.2,2.1
		c1.1-0.3,2.3-0.1,3.3,0.6c2.5,1.7,5.7,2.1,8.6,0.9l0,0c9.5-3.8,19.7-4.9,29.8-3.9c0.7,0.1,1-0.8,0.5-1.2
		C63.6,90.6,59.6,85.1,56.9,78.4z"/>
	<path d="M89.7,64.9c-5.5-13.7-16.5-22.1-24.6-18.8c-8.1,3.3-10.2,17-4.7,30.6C66,90.4,77,98.8,85.1,95.6
		C93.1,92.3,95.2,78.6,89.7,64.9z M83.7,92.1c-6.4,2.6-15.5-4.9-20.2-16.6c-4.8-11.8-3.4-23.4,3-26c6.4-2.6,15.5,4.9,20.2,16.6
		C91.4,77.9,90.1,89.6,83.7,92.1z"/>
	<g>
		<path d="M70.1,80.7l4.4-2.4c1.6-0.9,2.3-2.8,1.6-4.4L74,68.6c-0.7-1.7-2.5-2.6-4.2-2.1l-4.8,1.3c0.5,2.2,1.1,4.4,2,6.6
			C67.9,76.7,68.9,78.8,70.1,80.7z"/>
	</g>
	<g>
		<path d="M61.5,116.3L55,100c-0.3-0.7-1.1-1.2-1.8-1.1c-3,0.4-6,1-9,1.8c-1,0.3-1.5,1.4-1.1,2.4l6.7,16.7
			c1.3,0.1,2.6,0.2,3.9,0.2c3,0,5.7-0.3,8.2-0.8C62,118.2,61.9,117.2,61.5,116.3z"/>
	</g>
</g>
</svg>
