<svg version="1.1" xmlns="http://www.w3.org/2000/svg" xmlns:xlink="http://www.w3.org/1999/xlink" x="0px" y="0px" viewBox="0 0 110 120" style="enable-background:new 0 0 110 120;" preserveAspectRatio="xMidYMid meet" xml:space="preserve">
<g class="icon-bg">
	<circle fill="none" cx="54.9" cy="81.2" r="38.8"/>
</g>
<g class="icon cta-group-woman">
	<path d="M75.3,93.2c-0.6-4-4.9-4.8-8.4-5.8l-3.5-0.9l-2-0.7v-3.4c4-0.2,9.2-1.1,13.1-4.6c0,0-5.5-2.8-3.4-11.5
		c2.9-11.6,0-23.7-16.2-21.6c-16.2-2.1-19,10-16.2,21.6c2.1,8.6-3.4,11.5-3.4,11.5c3.6,3.6,8.9,4.5,13,4.6v3.3l-2,0.6l-3.5,1
		c-3.5,1-7.8,1.7-8.4,5.8l-3,19.2c6.6,4.8,14.6,7.6,23.4,7.6c8.7,0,16.8-2.8,23.4-7.6L75.3,93.2z"/>
	<path d="M31.6,93.8c0.7-3.3,1.2-5.1,4.5-7.2c-1.2-0.5-2.5-0.8-3.7-1.1l-2.8-0.7L28,84.1v-3.9c2.4-1.3,3.4-3.7,3.6-6.6
		l0-0.2c0.1,0,1,0,1.1,0c2.2,0,3.1-1.7,3.1-3.9c0-2-0.9-3.7-2.8-3.9l0.3-4.1c0.1-1.6-0.2-3.1-0.8-4.4c1.9-3.3-0.3-7.7-8.8-7.7
		c-6.1,0-8.6,6.1-12.9,4.6c0,0-1.5,4,1.2,6.4c0,0.4,0,0.9,0,1.3l0.4,3.9c-2,0.1-2.9,1.8-2.9,3.9c0,2.2,0.9,3.9,3.1,3.9
		c0.2,0,1.3,0,1.5-0.1l0.1,0.5c0.3,2.7,1.1,4.9,3.3,6.2v4.1l-1.2,0.8c0.2,1.8,0.5,3.6,0.9,5.4l0,0c0,0.1,0.1,0.3,0.1,0.4
		c0.1,0.3,0.2,0.6,0.2,0.9c0.1,0.4,0.2,0.7,0.3,1.1c0,0.1,0.1,0.2,0.1,0.4c0,0,0,0.1,0,0.1l0,0c0.7,2.3,1.7,4.5,2.8,6.5l0,0
		c0.1,0.1,0.1,0.2,0.2,0.3c0.4,0.7,0.8,1.4,1.2,2c0.1,0.2,0.3,0.4,0.4,0.7c0.4,0.7,0.9,1.3,1.4,1.9c0.2,0.2,0.3,0.4,0.5,0.6
		c0.5,0.6,1,1.2,1.5,1.8c0.2,0.2,0.3,0.3,0.5,0.5c0.1,0.2,0.3,0.3,0.4,0.5l0,0c0.6,0.6,1.1,1.1,1.7,1.7
		C28.7,109.5,30.5,98.7,31.6,93.8z"/>
	<path d="M97.6,65.6l0.3-4.1c0.1-1.6-0.2-3.1-0.8-4.4c1.9-3.3-0.3-7.7-8.8-7.7c-6.1,0-8.6,6.1-12.9,4.6
		c0,0-1.5,4,1.2,6.4c0,0.4,0,0.9,0,1.3l0.4,3.9c-2,0.1-2.9,1.8-2.9,3.9c0,2.2,0.9,3.9,3.1,3.9c0.2,0,1.3,0,1.5-0.1l0.1,0.5
		c0.3,2.7,1.1,4.9,3.3,6.2v4.1l-1.6,0.5l-2.8,0.8c-1.2,0.3-2.6,0.6-3.7,1.1c3.3,2.1,3.8,3.9,4.5,7.3c1,4.7,2.7,14.8,2.8,15.9
		c0.2-0.2,0.5-0.4,0.7-0.6l0,0c0.1-0.1,0.2-0.2,0.3-0.3c0.2-0.2,0.5-0.5,0.7-0.7c0.1-0.1,0.3-0.3,0.4-0.4c0.2-0.3,0.5-0.5,0.7-0.8
		c0.1-0.1,0.2-0.3,0.4-0.4c0.2-0.3,0.5-0.6,0.7-0.8c0.1-0.1,0.2-0.3,0.3-0.4c0.2-0.3,0.5-0.6,0.7-0.9c0.1-0.1,0.2-0.3,0.3-0.4
		c0.2-0.3,0.5-0.7,0.7-1c0.1-0.1,0.2-0.2,0.2-0.4c0.2-0.4,0.5-0.8,0.7-1.1c0.1-0.1,0.1-0.2,0.2-0.3c0.3-0.5,0.5-0.9,0.8-1.4
		c0,0,0,0,0,0c0,0,0-0.1,0.1-0.1l0,0c1.1-2,2-4.2,2.7-6.4l0,0c0.3-0.9,0.6-1.9,0.8-2.9l0,0c0.4-1.8,0.7-3.6,0.9-5.5l-1-0.6v-3.9
		c2.4-1.3,3.4-3.7,3.6-6.6l0-0.2c0.1,0,1,0,1.1,0c2.2,0,3.1-1.7,3.1-3.9C100.4,67.4,99.5,65.8,97.6,65.6z"/>
</g>
</svg>
