<svg version="1.1" xmlns="http://www.w3.org/2000/svg" xmlns:xlink="http://www.w3.org/1999/xlink" x="0px" y="0px" viewBox="0 0 110 120" style="enable-background:new 0 0 110 120;" preserveAspectRatio="xMidYMid meet" xml:space="preserve">
<g class="icon-bg">
	<circle fill="none" cx="54.7" cy="80.9" r="38.8"/>
</g>
<g class="icon cta-scales">
	<path d="M102.2,66.8L90.8,39.4c0.7,0,1.3-0.1,1.9-0.1c1.2,0,2.2-1,2.2-2.2s-1-2.2-2.2-2.2c-16.2,0-32.7,5.2-37.9,5.2
	c-5.2,0-21.7-5.2-37.9-5.2c-1.2,0-2.2,1-2.2,2.2s1,2.2,2.2,2.2c0.6,0,1.2,0,1.8,0.1L7.4,66.8h-3c0,8.7,7.1,15.8,15.8,15.8
	s15.8-7.1,15.8-15.8h-3.1L21.5,39.6c12.6,1.5,28.7,8.2,33.3,8.2h0c4.6,0,20.6-6.6,33.2-8.2L76.7,66.8h-3c0,8.7,7.1,15.8,15.8,15.8
	s15.8-7.1,15.8-15.8H102.2z M6.9,70.2c1.3,0,3.4,0.7,4.1,1.8c1.9,3,3.8,4.3,7.2,5.5c1,0.3,1.7,2.3,1.7,3.3
	C13.8,80,8.8,75.8,6.9,70.2z M31.4,66.8H8.7l11.3-27.3c0,0,0,0,0.1,0L31.4,66.8z M76.2,70.2c1.3,0,3.4,0.7,4.1,1.8
	c1.9,3,3.8,4.3,7.2,5.5c1,0.3,1.7,2.3,1.7,3.3C83.1,80,78.1,75.8,76.2,70.2z M78.1,66.8l11.3-27.3c0,0,0,0,0.1,0l11.3,27.3H78.1z"/>
	<g class="scales-base">
		<path d="M54.8,119c11.7,0,22.3-5.1,29.5-13.2c-5.1-11.3-16.4-9.1-29.5-9.1c-13.2,0-24.5-2.1-29.5,9.1
			C32.6,113.9,43.1,119,54.8,119z"/>
		<path d="M54.8,93c5.1,0,10-0.3,14.3-0.1v-2.5c0-2-1.6-3.6-3.6-3.6H44.2c-2,0-3.6,1.6-3.6,3.6V93
			C44.8,92.7,49.7,93,54.8,93z"/>
		<path d="M54.8,51.4L54.8,51.4c-0.8,0-1.9-0.2-3.3-0.5c-0.8,14.2-2.3,24.7-2.5,32.4h11.7c-0.3-7.8-1.8-18.2-2.5-32.4
			C56.7,51.2,55.6,51.4,54.8,51.4z"/>
	</g>
</g>
</svg>
