<svg version="1.1" xmlns="http://www.w3.org/2000/svg" xmlns:xlink="http://www.w3.org/1999/xlink" x="0px" y="0px" viewBox="0 0 110 120" style="enable-background:new 0 0 110 120;" preserveAspectRatio="xMidYMid meet" xml:space="preserve">
<g class="icon-bg">
	<circle fill="none" cx="55" cy="81.2" r="38.8"/>
</g>
<g class="icon cta-flag">
	<path class="" d="M54.8,104c-5,0-9.4,0.5-13,1.3l-3.7-65.5c1.2-1,2-2.6,1.8-4.3c-0.2-2.8-2.6-4.9-5.4-4.7
		c-2.8,0.2-4.9,2.6-4.7,5.4c0.1,1.7,1.1,3.1,2.4,4l5.4,66.1c-5.8,1.7-8.9,3.6-8.9,3.6c5.8,5,14.5,9.6,25.9,9.6
		c11.8,0,20.3-4.7,25.9-9.6C80.7,110,71.7,104,54.8,104z"/>
	<g class="flag">
		<path class="stars" d="M41.8,41.2L43,61.8c9,0.1,13.9,1.4,19.4,2.8V44C56.7,42.5,51.6,41.2,41.8,41.2z M51.8,45.4l0.6-1.2l0.6,1.2
		l1.3,0.2l-1,0.9l0.2,1.3l-1.2-0.6l-1.2,0.6l0.2-1.3l-1-0.9L51.8,45.4z M45.5,44.7l0.6-1.2l0.6,1.2l1.3,0.2l-1,0.9l0.2,1.3l-1.2-0.6
		L45,47.1l0.2-1.3l-1-0.9L45.5,44.7z M47.3,59.1l-1.2-0.6L45,59.1l0.2-1.3l-1-0.9l1.3-0.2l0.6-1.2l0.6,1.2l1.3,0.2l-1,0.9L47.3,59.1
		z M49,53.3l-1.2,0.6l0.2-1.3l-1-0.9l1.3-0.2l0.6-1.2l0.6,1.2l1.3,0.2l-1,0.9l0.2,1.3L49,53.3z M53.5,60l-1.2-0.6L51.2,60l0.2-1.3
		l-1-0.9l1.3-0.2l0.6-1.2l0.6,1.2l1.3,0.2l-1,0.9L53.5,60z M54.5,54.7l0.2-1.3l-1-0.9l1.3-0.2l0.6-1.2l0.6,1.2l1.3,0.2l-1,0.9
		l0.2,1.3l-1.2-0.6L54.5,54.7z M59.8,61l-1.2-0.6L57.4,61l0.2-1.3l-1-0.9l1.3-0.2l0.6-1.2l0.6,1.2l1.3,0.2l-1,0.9L59.8,61z
		 M59.5,47.6l0.2,1.3l-1.2-0.6l-1.2,0.6l0.2-1.3l-1-0.9l1.3-0.2l0.6-1.2l0.6,1.2l1.3,0.2L59.5,47.6z"/>
		<path class="stripe" d="M43.2,65.8l0.2,4.1c16.9,0.3,26.3,4.9,47.5,5.8l1.1-4C70,70.9,60.6,66.1,43.2,65.8z"/>
		<path class="stripe" d="M65.9,44.5c0,1.2,0,2.5,0,4c5.7,1.3,19.2,2.6,31.9,2.6l1.1-3.9C85.8,47.2,71.7,45.9,65.9,44.5z"/>
		<path class="stripe" d="M65.9,61c0,1.9,0,3.4,0,4.2c5,1.2,16.4,2.3,27.4,2.6l1.1-4.1C83,63.3,71.1,62.2,65.9,61z"/>
		<path class="stripe" d="M65.9,52.5c0,1.5,0,3,0,4.5c5.3,1.3,17.8,2.4,29.6,2.6l1.2-4.5C84.5,55,71.4,53.8,65.9,52.5z"/>
		<path class="stripe" d="M43.7,73.8l0.2,4.1c15.8,0.4,25.5,4.6,44.9,5.7l1.1-4C69.7,78.6,60.1,74.2,43.7,73.8z"/>
	</g>
</g>
</svg>
