<svg version="1.1" xmlns="http://www.w3.org/2000/svg" xmlns:xlink="http://www.w3.org/1999/xlink" x="0px" y="0px" viewBox="0 0 110 120" style="enable-background:new 0 0 110 120;" preserveAspectRatio="xMidYMid meet" xml:space="preserve">
<g class="icon-bg">
	<circle fill="none" cx="55.1" cy="80.4" r="38.8"/>
</g>
<g class="icon cta-quill">
	<path d="M76.5,93V81c0,0-5.7-23,14-36.3c0,0,1.5,11-3.8,15.4H89c0,0-0.1,6.6-5.7,10.3H86c0,0-1.4,11-7.5,13.1
		C78.5,83.4,78.4,91.1,76.5,93z"/>
	<path d="M61.8,47.3l-45.7,8l10.2,51.1c2.4,2.7,5.2,5,8.2,6.9l18.6-3.3l0.8,3.7L40,116.1c4.6,2,9.8,3.1,15.1,3.1
		c8.8,0,16.9-2.9,23.4-7.9L61.8,47.3z M21.3,62.1L60,55.3l1.9,7.3l-39.2,6.9L21.3,62.1z M24.3,76.9l39.6-7l1,3.6l-39.8,7L24.3,76.9z
		 M25.7,84.3l40.1-7l1,3.6L26.5,88L25.7,84.3z M28,95.4l-0.7-3.7l40.5-7.1l1,3.6L28,95.4z M28.7,99l40.9-7.2l1,3.6l-41.2,7.2L28.7,99
		z M30.9,110.1l-0.7-3.7l41.4-7.3l1,3.6L30.9,110.1z"/>
</g>
</svg>
