<svg version="1.1" xmlns="http://www.w3.org/2000/svg" xmlns:xlink="http://www.w3.org/1999/xlink" x="0px" y="0px" viewBox="0 0 110 120" style="enable-background:new 0 0 110 120;" preserveAspectRatio="xMidYMid meet" xml:space="preserve">
<g class="icon-bg">
	<circle fill="none" cx="55" cy="80.5" r="38.8"/>
</g>
<g class="icon cta-map">
	<g class="pin">
		<path d="M70.9,36.9c-9.7,0-17.5,7.8-17.5,17.5c0,13.3,10.8,26.9,17.5,33.7c6.8-6.8,17.5-20.4,17.5-33.7
			C88.4,44.7,80.5,36.9,70.9,36.9z M77.2,63.5l-6.3-3.6l-6.2,3.6l1.4-7.1l-5.4-4.8l7.2-0.8l2.9-6.6l3,6.6l7.2,0.7l-5.3,4.9
			L77.2,63.5z"/>
	</g>
	<g class="map">
		<path d="M39.8,98.3v17.8c4.7,2,9.8,3.1,15.2,3.1c6.9,0,13.3-1.8,18.9-4.9l-16-16H39.8z"/>
		<path d="M78.8,111.1c3.1-2.4,5.9-5.4,8.2-8.6V75.8C82,84,75.7,91,70.9,95.9c-8.8-8.8-22.5-24.8-23.7-41.9H21.6
			L78.8,111.1z"/>
		<path d="M21.6,98.3v1.9c3.1,5.2,7.4,9.7,12.5,12.9V98.3H21.6z"/>
		<polygon points="21.6,62 21.6,92.6 52.2,92.6 	"/>
	</g>
</g>
</svg>
