<svg version="1.1" xmlns="http://www.w3.org/2000/svg" xmlns:xlink="http://www.w3.org/1999/xlink" x="0px" y="0px" viewBox="0 0 110 120" style="enable-background:new 0 0 110 120;" preserveAspectRatio="xMidYMid meet" xml:space="preserve">
<g class="icon-bg">
	<circle fill="none" cx="55" cy="81.2" r="38.8"/>
</g>
<g class="icon cta-woman">
		<path d="M75.4,93.2c-0.6-4-4.9-4.8-8.4-5.8l-3.5-0.9l-0.1,8.1L55,88.5l-8.4,6.1l-0.1-8.2l-3.5,1
			c-3.5,1-7.8,1.7-8.4,5.8l-3,19.2c6.6,4.8,14.6,7.6,23.4,7.6c8.7,0,16.8-2.8,23.4-7.6L75.4,93.2z M55,111.8l-6.1-14.7l6.1-4.4
			l6.1,4.4L55,111.8z"/>
		<path d="M74.6,77.8c0,0-5.5-2.8-3.4-11.5c2.9-11.6,0-23.7-16.2-21.6c-16.2-2.1-19,10-16.2,21.6
			c2.1,8.6-3.4,11.5-3.4,11.5c3.6,3.6,8.9,4.5,13,4.6v3.3c0,0,3.1,2.7,6.5,2.7s6.5-2.7,6.5-2.7v-3.4C65.6,82.2,70.7,81.3,74.6,77.8z"/>
</g>
</svg>
