<svg version="1.1" xmlns="http://www.w3.org/2000/svg" xmlns:xlink="http://www.w3.org/1999/xlink" x="0px" y="0px" viewBox="0 0 110 120" style="enable-background:new 0 0 110 120;" preserveAspectRatio="xMidYMid meet" xml:space="preserve">
<g class="icon-bg">
	<circle fill="none" cx="55" cy="81.2" r="38.8"/>
</g>
<g class="icon cta-podium-man">
	<polygon points="84.1,69.9 25.9,69.9 23.9,59.5 86.1,59.5 "/>
	<path d="M29.9,73.4l3.4,40.1C39.5,117.6,47,120,55,120s15.5-2.4,21.7-6.5l3.4-40.1H29.9z M55,109.5
		c-5.9,0-10.6-6.2-10.6-13.8S49.1,81.9,55,81.9s10.6,6.2,10.6,13.8S60.9,109.5,55,109.5z"/>
	<path d="M70.8,56.1l-1.5-9.8c-0.4-2.8-3.4-3.4-5.9-4L61,41.7l-1.4-0.9v-3c2.1-1.1,3-3.2,3.2-5.8l0-0.2c0.1,0,0.9,0,1,0
		c1.9,0,2.7-1.5,2.7-3.4c0-1.8-0.8-3.2-2.4-3.4l0.3-3.6c0.1-1.4-0.2-2.7-0.7-3.8c1.6-2.9-0.2-6.7-7.7-6.7c-5.3,0-7.5,5.4-11.3,4
		c0,0-1.3,3.5,1,5.6c0,0.4,0,0.7,0,1.1l0.4,3.4c-1.8,0.1-2.5,1.6-2.5,3.4c0,1.9,0.8,3.4,2.7,3.4c0.2,0,1.1,0,1.3-0.1l0,0.4
		c0.3,2.3,0.9,4.3,2.9,5.4v3.1L49,41.6l-2.4,0.7c-2.4,0.7-5.4,1.2-5.9,4.1l-1.5,9.8H70.8z"/>
</g>
</svg>
