<svg version="1.1" xmlns="http://www.w3.org/2000/svg" xmlns:xlink="http://www.w3.org/1999/xlink" x="0px" y="0px" viewBox="0 0 110 120" style="enable-background:new 0 0 110 120;" preserveAspectRatio="xMidYMid meet" xml:space="preserve">
<g class="icon-bg">
	<circle fill="none" cx="55" cy="81.2" r="38.8"/>
</g>
<g class="icon cta-podium">
	<polygon points="84.1,69.9 25.9,69.9 23.9,59.5 86.1,59.5 "/>
	<path class="st1" d="M29.9,73.4l3.4,40.1C39.5,117.6,47,120,55,120s15.5-2.4,21.7-6.5l3.4-40.1H29.9z M55,109.5
		c-5.9,0-10.6-6.2-10.6-13.8S49.1,81.9,55,81.9s10.6,6.2,10.6,13.8S60.9,109.5,55,109.5z"/>
	<path d="M35.6,44c0.8,0.6,2,0.6,2.8,0l3.2-2.3c1.1-0.8,1.3-2.3,0.5-3.4c-0.8-1.1-2.3-1.3-3.4-0.5l-3.2,2.3
		c-0.9,0.7-1.2,1.9-0.8,2.9c-5,4.2-5.3,9.7-4.7,13.2h1.5C31,52.6,31.4,47.6,35.6,44z"/>
	<path d="M75.2,43c0.4-1,0.1-2.2-0.8-2.9l-3.2-2.3c-1.1-0.8-2.6-0.5-3.4,0.5c-0.8,1.1-0.5,2.6,0.5,3.4l3.2,2.3
		c0.9,0.6,2,0.6,2.8,0c4.2,3.7,4.6,8.6,4.1,12.2h1.5C80.5,52.7,80.2,47.2,75.2,43z"/>
	<polygon points="72.1,49.8 37.9,49.8 40.9,56.2 69.1,56.2 "/>
</g>	
</svg>
