<svg version="1.1" xmlns="http://www.w3.org/2000/svg" xmlns:xlink="http://www.w3.org/1999/xlink" x="0px" y="0px" viewBox="0 0 110 120" style="enable-background:new 0 0 110 120;" preserveAspectRatio="xMidYMid meet" xml:space="preserve">
<g class="icon-bg">
	<circle fill="none" cx="54.9" cy="81.2" r="38.8"/>
</g>
<g class="icon cta-group-man">
	<path d="M75.3,89.2c-0.6-4-4.9-4.8-8.4-5.8l-3.5-0.9l-2-0.7v-4.9c3-1.6,4.2-4.6,4.5-8.3l0-0.3c0.1,0,1.3,0,1.4,0
		c2.7,0,3.9-2.2,3.9-4.9c0-2.5-1.1-4.6-3.5-4.8l0.4-5.2c0.2-2-0.2-3.8-1.1-5.4c2.3-4.1-0.3-9.6-11-9.6c-7.6,0-10.8,7.6-16.1,5.7
		c0,0-1.8,5,1.5,8c0,0.5,0,1.1,0,1.6l0.5,4.9c-2.5,0.1-3.6,2.2-3.6,4.8c0,2.7,1.2,4.9,3.9,4.9c0.3,0,1.6,0,1.8-0.1l0.1,0.6
		c0.4,3.3,1.3,6.2,4.1,7.7v5.1l-2,0.6l-3.5,1c-3.5,1-7.8,1.7-8.4,5.8l-3,23.2c6.6,4.8,14.6,7.6,23.4,7.6c8.7,0,16.8-2.8,23.4-7.6
		L75.3,89.2z"/>
	<path d="M31.6,88.5c0.3-2.7,2.3-4.8,5.4-6.4c-1.2-0.9-2.9-1.3-4.4-1.7l-2.4-0.6l-1.4-0.5v-2.4c2.8-0.1,6.4-0.8,9.1-3.2
		c0,0-3.9-2-2.4-8c2-8.2,0-16.6-11.3-15.2c-11.3-1.4-13.3,7-11.3,15.2c1.5,6-2.4,8-2.4,8c2.5,2.5,6.2,3.2,9.1,3.2v2.3l-1.4,0.4
		l-2,0.6c0,0.3,0,0.7,0,1c0,11.3,4.8,21.4,12.5,28.5C28.9,108.4,31,93,31.6,88.5z"/>
	<path d="M91.8,79.7l-1.4-0.5v-2.4c2.8-0.1,6.4-0.8,9.1-3.2c0,0-3.9-2-2.4-8c2-8.2,0-16.6-11.3-15.2
		c-11.3-1.4-13.3,7-11.3,15.2c1.5,6-2.4,8-2.4,8c2.5,2.5,6.2,3.2,9.1,3.2v2.3l-1.4,0.4l-2.4,0.7c-1.5,0.4-3.3,0.8-4.5,1.8
		c3.1,1.6,5,3.7,5.3,6.4c0.6,4.7,2.8,20.7,2.9,21.3c7.7-7.1,12.6-17.3,12.6-28.6c0-0.3,0-0.7,0-1L91.8,79.7z"/>
</g>
</svg>
