<svg version="1.1" xmlns="http://www.w3.org/2000/svg" xmlns:xlink="http://www.w3.org/1999/xlink" x="0px" y="0px" viewBox="0 0 110 120" style="enable-background:new 0 0 110 120;" preserveAspectRatio="xMidYMid meet" xml:space="preserve">
<g class="icon-bg">
	<circle fill="none" cx="55" cy="81.2" r="38.8"/>
</g>
<g class="icon cta-profile">
	<path class="st1" d="M20.7,37.7l8.5,72.4c6.8,6.1,15.9,9.8,25.8,9.8s18.9-3.7,25.8-9.8l8.5-72.4H20.7z M56.9,45.2h11.6l-0.3,3.7
		H56.9V45.2z M29.1,45.2h24l0,23.1h-4l-0.9-3.5c-0.7-2.8-3.2-4.7-6.1-4.7s-5.3,1.9-6.1,4.7l-0.9,3.5h-3.3L29.1,45.2z M53.1,105.9
		H36.3l-0.4-3.7h17.3V105.9z M74.6,98.4H35.4l-0.4-3.7h40.1L74.6,98.4z M75.5,90.8h-41l-0.4-3.7H76L75.5,90.8z M76.4,83.3H33.6
		l-0.4-3.7h43.7L76.4,83.3z M77.3,75.8H32.7l-0.4-3.7h45.5L77.3,75.8z M79.1,60.8H56.9v-4.1l0-4.1H80L79.1,60.8z"/>
	<circle class="st1" cx="42.2" cy="54.1" r="4.9"/>
</g>
</svg>
