<svg class="cta-colorado-flag" version="1.1" xmlns="http://www.w3.org/2000/svg" xmlns:xlink="http://www.w3.org/1999/xlink" x="0px" y="0px" viewBox="0 0 110 120" style="enable-background:new 0 0 110 120;" preserveAspectRatio="xMidYMid meet" xml:space="preserve">
<g class="icon-bg">
	<circle fill="none" cx="53.7" cy="81" r="38.8"/>
</g>
<g class="icon">
	<path d="M53.5,103.8c-5,0-9.4,0.5-13,1.3l-3.7-65.5c1.2-1,2-2.6,1.8-4.3c-0.2-2.8-2.6-4.9-5.4-4.7
	c-2.8,0.2-4.9,2.6-4.7,5.4c0.1,1.7,1.1,3.1,2.4,4l5.4,66.1c-5.8,1.7-8.9,3.6-8.9,3.6c5.8,5,14.5,9.6,25.9,9.6
	c11.8,0,20.3-4.7,25.9-9.6C79.5,109.7,70.4,103.8,53.5,103.8z"/>
	<g class="colorado-flag">
		<path class="stripe" d="M94.2,59.4L97.6,47c0,0-15.7,1.8-30.3-2.7c-16.4-5-26.8-3.3-26.8-3.3l0.7,12.1c1.7-0.2,6.5-0.5,13.6,0.6
			c2.5-3.1,6.3-5.1,10.7-5.1c6.4,0,11.8,4.4,13.2,10.3C85.1,59.6,90.8,59.6,94.2,59.4z"/>
		<path class="stripe" d="M65.6,75.8c-6.4,0-11.7-4.4-13.2-10.3c-5-0.6-8.5-0.4-10.4-0.3l0.7,11.5c3.8-0.2,12.6-0.2,24.7,3.5
			c7.2,2.2,14.6,2.9,20.3,3l3.2-11.5c-3.9,0-9-0.2-14.6-1C73.7,73.8,69.9,75.8,65.6,75.8z"/>
		<path class="c" d="M67.8,63.9c-0.5,0.6-1.3,1.1-2.2,1.1c-1.6,0-2.8-1.3-2.8-2.8s1.3-2.8,2.8-2.8c1.3,0,2.4,0.9,2.7,2.1l7-1.8
			c-1.1-4.4-5-7.6-9.7-7.6c-5.5,0-10,4.5-10,10s4.5,10,10,10c3.2,0,6-1.5,7.8-3.8L67.8,63.9z"/>
	</g>
</g>
</svg>
