<svg version="1.1" xmlns="http://www.w3.org/2000/svg" xmlns:xlink="http://www.w3.org/1999/xlink" x="0px" y="0px" viewBox="0 0 110 120" style="enable-background:new 0 0 110 120;" preserveAspectRatio="xMidYMid meet" xml:space="preserve">
<g class="icon-bg">
	<circle fill="none" cx="55" cy="80.5" r="38.8"/>
</g>
<g class="icon cta-magnifying-glass">
	<path d="M49.5,40.3c-15.4,0-27.8,12.5-27.8,27.8c0,4.2,0.9,8.2,2.6,11.8c-0.8,0.9-1.5,1.9-1.9,3
		c-0.5,1.1-0.7,2.2-0.7,3.3c0,1.6-0.8,3.2-1.9,4.3l-1.7,2.1c1,3.2,2.5,6.2,4.3,8.9l4.8-3.8c1.1-1.1,2.6-1.8,4.3-1.9
		c1,0,2.1-0.3,3.1-0.7c1.1-0.4,2.1-1.1,2.9-1.9c3.6,1.7,7.7,2.7,12,2.7c15.4,0,27.8-12.5,27.8-27.8S64.9,40.3,49.5,40.3z M49.5,92.5
		c-13.5,0-24.4-10.9-24.4-24.4s10.9-24.4,24.4-24.4s24.4,10.9,24.4,24.4S63,92.5,49.5,92.5z"/>
	<path d="M91.6,93.4l-8.1-31.1l-6.5,1.1c0.3,1.5,0.4,3.1,0.4,4.7c0,1,0,1.9-0.1,2.8l4.5-0.8l1.9,7.3l-8.4,1.5
		c-1.4,3.3-3.4,6.3-5.9,8.8l16.3-2.9l1,3.6l-23.9,4.2c-3.9,2.1-8.3,3.3-13.1,3.3c-2.3,0-4.6-0.3-6.8-0.8l4.7,23.5
		c2.5,0.5,5,0.7,7.6,0.7c7.6,0,14.7-2.2,20.7-6l-24.6,4.3l-0.7-3.7l31.6-5.5c1.4-1.4,2.8-2.9,4-4.5l-36.3,6.4l-0.7-3.7l39.8-7
		C89.8,97.7,90.8,95.6,91.6,93.4z M48.1,102.9l-0.7-3.7l40.1-7l1,3.6L48.1,102.9z"/>
	<path d="M49.8,50.7c9.6,0,17.5,7.8,17.5,17.5h3.5c0-11.6-9.4-21-21-21V50.7z"/>
	<path d="M36.6,66.9l26.2-4.6c-2.1-5.1-6.5-7.6-10.1-8.1l-22.7,4l6,30.1c3.9,2.6,8.6,4.2,13.6,4.2
		c6,0,11.5-2.2,15.8-5.8l-24,4.2l-0.9-4.7l29.9-5.2c1.9-3.2,3.2-6.8,3.5-10.7l-35.3,6.2L36.6,66.9z"/>
</g>
</svg>
