<svg version="1.1" xmlns="http://www.w3.org/2000/svg" xmlns:xlink="http://www.w3.org/1999/xlink" x="0px" y="0px" viewBox="0 0 110 120" style="enable-background:new 0 0 110 120;" preserveAspectRatio="xMidYMid meet" xml:space="preserve">
<g class="icon-bg">
	<circle fill="none" cx="55" cy="81.2" r="38.8"/>
</g>
<g class="icon cta-officer">
	<path d="M40.5,52.6v1c0,1.8,6.5,3.3,14.5,3.3s14.5-1.5,14.5-3.3v-1H40.5z"/>
	<path d="M68.1,40.1c-7.9-5.2-18.3-5.2-26.3,0c-7.7,5-6.7,10.2-2.4,11.6v-0.8c0-2,5.4-3.6,12.6-4c0,0,0,0,0-0.1
		c0-2.4,1.3-4.3,2.9-4.3s2.9,1.9,2.9,4.3c0,0,0,0,0,0.1c7.2,0.4,12.6,2,12.6,4v0.8C74.8,50.3,75.8,45.1,68.1,40.1z"/>
	<path d="M61.5,85.8v-5.4c2.5-1.5,4.4-4.3,5-7.6c0.1,0,0.3,0,0.4,0c2.8,0,4-2.3,4-5c0-2.7-1.1-4.8-3.7-5l0.3-4.1
		c-2.5,1-7.2,1.7-12.6,1.7c-5.4,0-10.1-0.7-12.6-1.7l0.3,4.1c-2.6,0.2-3.7,2.3-3.7,5c0,2.8,1.3,5,4,5c0.1,0,0.3,0,0.4,0
		c0.6,3.4,2.5,6.2,5,7.6v5.4c0,0,3.3,2.7,6.5,2.7S61.5,85.8,61.5,85.8z"/>
	<path d="M75.4,93.2c-0.1-0.5-0.2-0.9-0.4-1.4h-6c-1.1,0-2-0.9-2-2v-2.4l-3.5-0.9l-0.1,8.1L55,88.5l-8.4,6.1l-0.1-8.2
		l-3.5,1v2.5c0,1.1-0.9,2-2,2h-6c-0.2,0.4-0.3,0.9-0.4,1.4l-3,19.2c6.6,4.8,14.6,7.6,23.4,7.6c8.7,0,16.8-2.8,23.4-7.6L75.4,93.2z
		 M43,100.6h-7v-3.5h7V100.6z M52,109.1l-3.2-12l3.1-2.2c0,0,0.8,1.6,1.8,2.2L52,109.1z M58,109.1l-1.7-11.9c1-0.6,1.8-2.2,1.8-2.2
		l3.1,2.2L58,109.1z M74,100.6h-7v-3.5h7V100.6z"/>
</g>
</svg>
