<svg version="1.1" xmlns="http://www.w3.org/2000/svg" xmlns:xlink="http://www.w3.org/1999/xlink" x="0px" y="0px" viewBox="0 0 110 120" style="enable-background:new 0 0 110 120;" preserveAspectRatio="xMidYMid meet" xml:space="preserve">
<g class="icon-bg">
	<circle fill="none" cx="55" cy="81.2" r="38.8"/>
</g>
<g class="icon cta-checklist">
	<polygon points="33,61.8 36,58.8 39.7,62.4 48.2,53.9 51.3,56.9 39.7,68.5 	"/>
	<path d="M55,120c11,0,20.8-4.6,27.9-11.9l4.4-70.4H22.7l4.4,70.4C34.2,115.4,44,120,55,120z M49.3,97.9H32.5l-0.7-18.8
		h17.6V97.9z M56.9,56.3h22.4l-0.2,3.8H56.9V56.3z M56.9,63.9h22l-0.4,7.6H56.9V63.9z M56.9,82.7h22.4l-0.2,3.8H56.9V82.7z
		 M56.9,90.3h22l-0.4,7.6H56.9V90.3z M45.1,52.8l3.1-3.1l7.3,7.3l-6.2,6.3v8.4h-18l-0.7-18.8H45.1z"/>
</g>
</svg>
