<svg version="1.1" xmlns="http://www.w3.org/2000/svg" xmlns:xlink="http://www.w3.org/1999/xlink" x="0px" y="0px" viewBox="0 0 110 120" style="enable-background:new 0 0 110 120;" preserveAspectRatio="xMidYMid meet" xml:space="preserve">
<g class="icon-bg">
	<circle fill="none" cx="55" cy="81.2" r="38.8"/>
</g>
<g class="icon cta-list">
	<path d="M20.7,37.7l8.5,72.4c6.8,6.1,15.9,9.8,25.8,9.8s18.9-3.7,25.8-9.8l8.5-72.4H20.7z M29.1,48.2H55v3.7H29.5
		L29.1,48.2z M31.8,70.7H55v3.7H32.2L31.8,70.7z M34.4,93.1H55v3.7H34.8L34.4,93.1z M73.8,108H36.2l-0.9-7.5h39.4L73.8,108z
		 M76.4,85.6H33.5l-0.9-7.5h44.6L76.4,85.6z M79,63.2H30.9L30,55.7h49.9L79,63.2z"/>
</g>
</svg>
