<svg version="1.1" xmlns="http://www.w3.org/2000/svg" xmlns:xlink="http://www.w3.org/1999/xlink" x="0px" y="0px" viewBox="0 0 50 50" style="enable-background:new 0 0 50 50;" preserveAspectRatio="xMidYMid meet" xml:space="preserve">
<g>
	<path d="M47.7,14.7C43.8,6.1,35.1,0.1,25,0.1c-10.1,0-18.8,6-22.7,14.6H47.7z"/>
	<path d="M2.3,35.5c1.9,4.2,5,7.9,8.9,10.4v-7h6.9v10.2c1.1,0.3,2.3,0.6,3.5,0.7V39h6.9v10.9c1.2-0.2,2.3-0.4,3.5-0.7
		V39h6.9v7c3.8-2.6,6.9-6.2,8.9-10.4H2.3z"/>
	<polygon points="18.8,6.1 23.1,5.7 24.9,1.6 26.7,5.6 31.1,6.1 27.8,9 28.8,13.3 24.9,11.1 21.2,13.4 22,9.1 	"/>
	<g>
		<path d="M2.3,18.9h3.3L7.8,26c0.2,0.8,0.5,2,0.5,2h0c0,0,0.2-1.2,0.5-2l2.2-7.1h3.3L9.8,31.3H6.7L2.3,18.9z"/>
		<path d="M20.5,18.7c3.8,0,6.5,2.8,6.5,6.3c0,3.7-2.7,6.5-6.5,6.5S14,28.7,14,25C14,21.5,16.8,18.7,20.5,18.7z
			 M20.5,28.8c1.9,0,3.4-1.6,3.4-3.7c0-2-1.5-3.6-3.4-3.6S17.2,23,17.2,25C17.2,27.2,18.7,28.8,20.5,28.8z"/>
		<path d="M31.5,21.5h-3.8v-2.6h10.6v2.6h-3.8v9.8h-3V21.5z"/>
		<path d="M39.7,18.9h7.8v2.6h-4.7v2.3h3.8v2.6h-3.8v2.3h5v2.6h-8V18.9z"/>
	</g>
</g>
</svg>
