<svg version="1.1" xmlns="http://www.w3.org/2000/svg" xmlns:xlink="http://www.w3.org/1999/xlink" x="0px" y="0px" viewBox="0 0 50 50" preserveAspectRatio="xMidYMid meet" style="enable-background:new 0 0 50 50;" xml:space="preserve">
<rect x="18.3" y="38.7" width="13.5" height="3.5"/>
<path d="M20.7,44.3h8.5v3.5h-1.6C27.4,49.1,26.3,50,25,50s-2.4-0.9-2.7-2.2h-1.6V44.3z"/>
<path d="M23.3,0.1c-6.8,0.8-12.3,6.4-12.9,13.2c-0.4,4.8,1.5,9.2,4.8,12.1c2.6,2.3,3.9,5.7,3.9,9.2l0,0.6h4.1V24l-5-5
	c-0.7-0.7-0.7-1.8,0-2.4l0,0c0.7-0.7,1.8-0.7,2.4,0l4.3,4.3l4.3-4.3c0.7-0.7,1.8-0.7,2.4,0l0,0c0.7,0.7,0.7,1.8,0,2.4l-5,5v11.2h4.1
	v-0.7c0-3.4,1.3-6.8,3.9-9.1c3-2.7,4.9-6.6,4.9-10.9C39.6,6,32.1-0.9,23.3,0.1z"/>
</svg>
