<svg version="1.1" xmlns="http://www.w3.org/2000/svg" xmlns:xlink="http://www.w3.org/1999/xlink" x="0px" y="0px" viewBox="0 0 50 50" style="enable-background:new 0 0 50 50;" preserveAspectRatio="xMidYMid meet" xml:space="preserve">
<path d="M50,15.7c0.1-0.6-0.6-0.9-1-0.4c-0.7,0.8-1.8,1.7-3,2.4C43.1,10.5,35.3,5.4,26.1,5.4c-4.2,0-8.1,1.1-11.4,2.9
	C13.6,7,10.2,3.4,5.1,4.2c-1.3,0.2-2,1.5-1.5,2.7l3.6,8.7c-0.7,1.2-1.2,2.5-1.6,3.8H1.9c-1,0-1.8,0.8-1.8,1.8v6.9
	c0,1,0.8,1.8,1.8,1.8h4.6c1.6,3.6,4.6,6.6,8.3,8.6v5.4c0,1,0.8,1.8,1.8,1.8h3.1c1,0,1.8-0.8,1.8-1.8v-3c1.5,0.3,3,0.4,4.5,0.4
	s3-0.2,4.5-0.4v3c0,1,0.8,1.8,1.8,1.8h3.1c1,0,1.8-0.8,1.8-1.8v-5.4c5.9-3.2,9.8-8.8,9.8-15.2c0-0.3,0-0.6-0.1-0.9
	C47.8,21.9,49.6,20,50,15.7z M32.6,15.6c-1,1-2.5,1.3-3.8,0.7c-1.7-0.8-3.7-0.8-5.4,0c-1.3,0.6-2.8,0.3-3.8-0.7
	c-1.7-1.7-1.1-4.5,1-5.5c3.5-1.6,7.5-1.6,11,0C33.7,11.1,34.2,13.9,32.6,15.6z"/>
</svg>
