<svg version="1.1" xmlns="http://www.w3.org/2000/svg" xmlns:xlink="http://www.w3.org/1999/xlink" x="0px" y="0px" viewBox="0 0 50 50" style="enable-background:new 0 0 50 50;" preserveAspectRatio="xMidYMid meet" xml:space="preserve">
<g class="dollar-bill">
	<path d="M49.8,31.1V5.2H0.2v25.9H49.8z M3.7,27.6v-19h42.6v19H3.7z"/>
	<path d="M32.3,24.2h8c0.4-1.2,1.4-2.1,2.6-2.4v-7c-1.3-0.3-2.4-1.3-2.7-2.7h-7.9c1.3,1.6,2.1,3.7,2.1,6
		C34.5,20.4,33.7,22.5,32.3,24.2z"/>
	<path d="M17.6,12.1H9.8c-0.4,1.2-1.4,2.1-2.6,2.4v7c1.3,0.3,2.4,1.3,2.7,2.7h7.8c-1.4-1.6-2.2-3.7-2.2-6
		C15.5,15.9,16.3,13.8,17.6,12.1z"/>
	<circle cx="25" cy="18.1" r="6.1"/>
</g>
<rect x="0.2" y="34.5" width="49.5" height="3.5"/>
<rect x="0.2" y="41.4" width="49.5" height="3.5"/>
</svg>
