<svg version="1.1" xmlns="http://www.w3.org/2000/svg" xmlns:xlink="http://www.w3.org/1999/xlink" x="0px" y="0px" viewBox="0 0 50 50" style="enable-background:new 0 0 50 50;" preserveAspectRatio="xMidYMid meet" xml:space="preserve">
<path d="M27.9,0H3.3C1.5,0,0,1.5,0,3.3v24.7c0,1.8,1.5,3.3,3.3,3.3h12.2V19.9c0-2.5,2-4.5,4.5-4.5h11.2V3.3
	C31.2,1.5,29.7,0,27.9,0z M8.5,26.2c-2,0-3.5-1.6-3.5-3.5c0-2,1.6-3.5,3.5-3.5s3.5,1.6,3.5,3.5C12.1,24.6,10.5,26.2,8.5,26.2z
	 M8.5,12.1c-2,0-3.5-1.6-3.5-3.5S6.6,5,8.5,5s3.5,1.6,3.5,3.5S10.5,12.1,8.5,12.1z M22.6,12.1c-2,0-3.5-1.6-3.5-3.5S20.7,5,22.6,5
	s3.5,1.6,3.5,3.5S24.6,12.1,22.6,12.1z"/>
<path d="M46.7,18.8H22.1c-1.8,0-3.3,1.5-3.3,3.3v24.7c0,1.8,1.5,3.3,3.3,3.3h24.7c1.8,0,3.3-1.5,3.3-3.3V22.1
	C50,20.3,48.5,18.8,46.7,18.8z M27.4,23.8c2,0,3.5,1.6,3.5,3.5c0,2-1.6,3.5-3.5,3.5s-3.5-1.6-3.5-3.5C23.8,25.4,25.4,23.8,27.4,23.8
	z M27.4,45c-2,0-3.5-1.6-3.5-3.5c0-2,1.6-3.5,3.5-3.5s3.5,1.6,3.5,3.5C30.9,43.4,29.3,45,27.4,45z M34.4,38c-2,0-3.5-1.6-3.5-3.5
	c0-2,1.6-3.5,3.5-3.5c2,0,3.5,1.6,3.5,3.5C38,36.4,36.4,38,34.4,38z M41.5,45c-2,0-3.5-1.6-3.5-3.5c0-2,1.6-3.5,3.5-3.5
	s3.5,1.6,3.5,3.5C45,43.4,43.4,45,41.5,45z M41.5,30.9c-2,0-3.5-1.6-3.5-3.5c0-2,1.6-3.5,3.5-3.5s3.5,1.6,3.5,3.5
	C45,29.3,43.4,30.9,41.5,30.9z"/>
</svg>
