<svg version="1.1" xmlns="http://www.w3.org/2000/svg" xmlns:xlink="http://www.w3.org/1999/xlink" x="0px" y="0px" viewBox="0 0 50 50" style="enable-background:new 0 0 50 50;" preserveAspectRatio="xMidYMid meet" xml:space="preserve">
<g>
	<path d="M47,10.8H37V3.8C37,1.7,35.3,0,33.2,0H16.8C14.7,0,13,1.7,13,3.8v7.1H3c-1.7,0-3,1.4-3,3V47c0,1.7,1.4,3,3,3
		H47c1.7,0,3-1.4,3-3V13.9C50,12.2,48.6,10.8,47,10.8z M16.6,5.4c0-1,0.8-1.7,1.7-1.7h13.3c1,0,1.7,0.8,1.7,1.7v5.5H16.6V5.4z
		 M25,44.6c-7.8,0-14.2-6.3-14.2-14.2S17.2,16.2,25,16.2s14.2,6.3,14.2,14.2S32.8,44.6,25,44.6z"/>
	<polygon points="36.4,27.6 27.8,27.6 27.8,19 22.2,19 22.2,27.6 13.6,27.6 13.6,33.2 22.2,33.2 22.2,41.8 27.8,41.8 
		27.8,33.2 36.4,33.2 	"/>
</g>
</svg>
