<svg version="1.1" xmlns="http://www.w3.org/2000/svg" xmlns:xlink="http://www.w3.org/1999/xlink" x="0px" y="0px" viewBox="0 0 50 50" style="enable-background:new 0 0 50 50;" xml:space="preserve">
<path d="M26.1,21.3l-10.8-0.2c-0.7,0-1.2-0.7-0.9-1.4l0.5-1.4c0.2-0.4,0.5-0.6,0.9-0.7l10.7-0.3L26.1,21.3z"/>
<path d="M12.9,37.9l-4.5-4.6C8,33,7.9,32.4,8.2,32l0.7-1.1c0.4-0.6,1.2-0.7,1.6-0.2l4.3,4.3L12.9,37.9z"/>
<g>
	<path d="M49.5,27.8l-6.6-13.4c-0.6-1.2-2-1.7-3.2-1.1L38.3,14c-1.2,0.6-1.6,2-1,3.2l7,13.1c0.6,1.1,1.8,1.6,3,1.1
		l1.1-0.4C49.5,30.5,50.1,29.1,49.5,27.8z"/>
	<path d="M11.7,14l-1.4-0.7c-1.2-0.6-2.6-0.1-3.2,1.1L0.5,27.8c-0.6,1.2,0,2.7,1.3,3.2l1.1,0.4c1.1,0.5,2.4,0,3-1.1
		l7-13.1C13.4,16.1,12.9,14.6,11.7,14z"/>
</g>
<path d="M41.5,33.3L41.5,33.3c0.8-0.8,1-2,0.5-3l-5.5-11c-0.5-1-1.5-1.5-2.5-1.5c-1.3,0.1-3.1,0-4.8-0.7
	c-3.1-1.3-5.2-0.7-7.8,0.7c-0.2,0.1-0.5,0.3-0.5,0.3l-3.5,2.8c-0.5,0.6-0.9,1.3-1,1.9c-0.3,1.8-2.5,7.6-1.5,8.1
	c1,0.5,6.7-0.1,8.4-6.8c0,0,2.8-1.8,4.6,0c0.6,0.6,2.1,1.8,3.8,3.2c0.2,0.2,0.4,0.3,0.6,0.5l4.5,4.4l1.2,1.3c1,1.1,0.9,2.7-0.1,3.7
	l-6.9-5.5c-0.4-0.3-1.1-0.2-1.4,0.2c-0.3,0.4-0.2,0.9,0.2,1.2l5.4,4.3c1.2,0.9,0.9,2.9-0.5,3.4l0,0l-6.5-5.1
	c-0.4-0.3-1.1-0.2-1.4,0.2c-0.3,0.4-0.2,0.9,0.2,1.2l4,3.2c1.2,1,0.8,3-0.8,3.3l0,0L26,40.5c-0.8-0.6-1.9-0.4-2.5,0.4l3.6,2.8
	c-0.2,0.5-0.6,0.8-1,1.1c-0.1-0.2-0.3-0.4-0.5-0.6h0c-0.7-0.6-1.6-0.7-2.4-0.5c-0.3,0.1-0.6,0.2-0.9,0.4c0.5-1,0.2-2.3-0.7-3.1
	c-0.9-0.7-2.2-0.8-3.1-0.2c0.7-1.1,0.5-2.6-0.5-3.4c-1-0.8-2.3-0.8-3.3,0c0.8-1.1,0.6-2.6-0.4-3.5c-0.8-0.6-1.8-0.7-2.6-0.4L10.1,35
	l-1.5,1.9c-0.8,1-0.9,2.5-0.1,3.4c0.9,1.1,2.6,1.2,3.6,0.4c-0.8,1.2-0.6,2.9,0.7,3.7c1.1,0.7,2.6,0.4,3.5-0.6l0.1-0.1
	c-0.5,1.2,0,2.7,1.4,3.3c1.1,0.5,2.3,0.1,3.1-0.8l0.1-0.1c-0.4,1.1,0,2.4,1,3.1c1.1,0.7,2.6,0.4,3.5-0.6l0.5-0.7c0,0,3.4,0.5,4-2.1
	c0,0,4,2.2,5.6-2c0,0,3.7-0.1,3.8-3.5C39.5,40.3,44.9,38.8,41.5,33.3z"/>
</svg>
