<svg version="1.1" xmlns="http://www.w3.org/2000/svg" xmlns:xlink="http://www.w3.org/1999/xlink" x="0px" y="0px" viewBox="0 0 50 50" style="enable-background:new 0 0 50 50;" preserveAspectRatio="xMidYMid meet" xml:space="preserve">
<g>
	<path d="M48.5,27.1h-6.2c0,0,0,0,0,0H29.6l-0.9-1.6l-6.5,11.8l-4.4-14.4l-1.7,4.3h-5.3c-0.9,0-1.7-0.7-1.7-1.7
		s0.7-1.7,1.7-1.7h3.1l4.5-10.7l4.7,15.7l5.8-10.6l2.8,5.6h12.2c1.8-6-1.1-12.5-6.9-15.1C31.6,6.5,25.7,8,22.2,12.2
		C18.7,8,12.7,6.5,7.5,8.8C1.2,11.6-1.7,19,1.1,25.3c3.8,8.6,14.6,14.4,21,16.9c0,0,0,0,0,0.1c0,0,0,0,0.1,0c0,0,0,0,0.1,0
		c0,0,0,0,0-0.1c5.1-2,13.2-6.2,18.1-12.2h8.2c0.8,0,1.5-0.7,1.5-1.5v0C50,27.8,49.3,27.1,48.5,27.1z"/>
</g>
</svg>
