<svg version="1.1" xmlns="http://www.w3.org/2000/svg" xmlns:xlink="http://www.w3.org/1999/xlink" x="0px" y="0px" viewBox="0 0 50 50" style="enable-background:new 0 0 50 50;" preserveAspectRatio="xMidYMid meet" xml:space="preserve">
<path d="M34.5,38.8c7-0.5,9.9-3.2,9.9-3.2s-3.2-2.3-10.3-1.9c-2.4,0.1-3.5,0.3-3.5,0.3c2.4-1,5.1-2.5,7.1-4.3
	c7.5-7,8.4-12.8,8.4-12.8s-0.6,0-1.6,0.3C33.1,19.8,27,30,27,30c1.2-3.2,2.6-7.6,2.6-11.6C29.6,5.6,25,0,25,0s-4.6,5.6-4.6,18.4
	c0,4,1.4,8.4,2.6,11.6c0,0-8.2-12.3-19.2-13.1c-0.1,0-0.1,0-0.1,0s0.8,5.8,8.4,12.8c2,1.9,4.8,3.3,7.1,4.3c0,0-1.9-0.4-4.9-0.3l0,0
	c-6.1-0.1-8.9,1.9-8.9,1.9s2.9,2.7,9.9,3.2c1.4,0.1,2.9-0.1,4.3-0.4c-4.6,3.2-4.7,7.6-4.7,7.6s2.5-0.1,5.9-3.2
	c0.6-0.5,1.1-1.2,1.5-1.9c0,0,0,0,0,0c1.3,3.5-0.4,9.1-0.4,9.1h1h3.8h1c-1.5-4.2-0.4-9.1-0.4-9.1c0,0,0,0,0,0
	c0.4,0.7,0.9,1.4,1.5,1.9c3.3,3,5.9,3.2,5.9,3.2c-0.4-4.5-4.7-7.6-4.7-7.6C31.6,38.7,33.1,38.9,34.5,38.8z"/>
</svg>
