<svg version="1.1" xmlns="http://www.w3.org/2000/svg" xmlns:xlink="http://www.w3.org/1999/xlink" x="0px" y="0px" viewBox="0 0 50 50" style="enable-background:new 0 0 50 50;" preserveAspectRatio="xMidYMid meet" xml:space="preserve">
<g>
	<path d="M35.8,19.5c-6.4-2.9-14-3-21.2-0.1c0.4-1.6,0.8-3.2,1.3-4.3c4.4-9,15.6-7.4,18.9,1
		C35.2,17.1,35.5,18.3,35.8,19.5z"/>
	<path d="M39.4,25.7c0-0.2-0.2-0.4-0.3-0.6c-1.5-1.6-3.5-2.4-5.5-3c-3.6-1.1-7.2-1.6-11-1.1c-3.2,0.4-6.3,1.1-9.2,2.7
		c-0.7,0.4-1.7,1-1.9,1.7c-0.3,1.3-0.1,2.7-0.1,4.1c0.7-0.3,1.4-0.6,2.2-0.8v-2c0-0.9,0.7-1.6,1.6-1.6c0.9,0,1.6,0.7,1.6,1.6v1.1
		c1.2-0.3,2.3-0.5,3.5-0.7V25c0-0.9,0.7-1.6,1.6-1.6s1.6,0.7,1.6,1.6v1.8c0.8,0,1.6-0.1,2.4,0c0.4,0,0.8,0,1.1,0V25
		c0-0.9,0.7-1.6,1.6-1.6c0.9,0,1.6,0.7,1.6,1.6v2c1.2,0.1,2.4,0.3,3.5,0.5v-0.9c0-0.9,0.7-1.6,1.6-1.6c0.9,0,1.6,0.7,1.6,1.6v1.8
		c0.2,0.1,0.4,0.1,0.6,0.2c0.5,0.2,1.1,0.4,1.5,0.6l0,0C39.4,28,39.4,26.8,39.4,25.7z"/>
	<path d="M47.3,50c-0.4-0.6-1.5-2.7-1.5-2.7s-2.9-3.2-4.1-3.4c-0.1-1.8-0.1-2.9-0.2-4.6c0-1.5,0-3.1,0-4.6
		c0-0.6-0.3-1-1-1.4c-0.7-0.4-3.1-1.3-4.8-1.8c-2.9-0.8-5.9-1.2-9-1.3c-3.8-0.1-7.6,0.3-11.3,1.4c-1.8,0.5-4.3,1.6-5.2,2
		c-0.9,0.4-1,0.9-1,1.7c0.1,2.9,0,5.8,0,8.7l-5,3.4c0,0-0.9,1.8-1.4,2.7H47.3z M35.4,36.1c0-0.9,0.7-1.6,1.6-1.6
		c0.9,0,1.6,0.7,1.6,1.6v5.7c0,0.9-0.7,1.6-1.6,1.6c-0.9,0-1.6-0.7-1.6-1.6V36.1z M27.7,34.4c0-0.9,0.7-1.6,1.6-1.6s1.6,0.7,1.6,1.6
		v4.5c0,0.9-0.7,1.6-1.6,1.6s-1.6-0.7-1.6-1.6V34.4z M19.9,34.4c0-0.9,0.7-1.6,1.6-1.6c0.9,0,1.6,0.7,1.6,1.6v4.5
		c0,0.9-0.7,1.6-1.6,1.6c-0.9,0-1.6-0.7-1.6-1.6V34.4z M12.2,36.1c0-0.9,0.7-1.6,1.6-1.6s1.6,0.7,1.6,1.6v5.7c0,0.9-0.7,1.6-1.6,1.6
		s-1.6-0.7-1.6-1.6V36.1z"/>
	<path d="M27.5,10.7c0-0.2,0-2.4,0-3.4c0-0.1-0.2-1.5-1.3-1.9c-0.2-2-0.6-5-0.8-5.3c-0.4,1.5-0.5,3.5-0.7,5.4
		c-0.9,0.3-1.3,1.1-1.3,2c0,0.3,0,2.1,0,2.3C24.8,9.5,26.1,10.4,27.5,10.7z"/>
</g>
</svg>
