<svg version="1.1" xmlns="http://www.w3.org/2000/svg" xmlns:xlink="http://www.w3.org/1999/xlink" x="0px" y="0px" viewBox="0 0 50 50" style="enable-background:new 0 0 50 50;" preserveAspectRatio="xMidYMid meet" xml:space="preserve">
<path d="M49.9,23.3c-0.3-4.3-1.7-8.3-3.8-11.7c-0.6-1-1.3-1.9-2.1-2.8c-1.6-1.9-3.5-3.6-5.7-4.9
	c-2.6-1.7-5.6-2.8-8.7-3.4c-0.9-0.2-1.9-0.3-2.9-0.4V0h-3.5v0.1c-1,0.1-2,0.2-2.9,0.4c-3.1,0.6-6.1,1.8-8.7,3.4
	c-2.1,1.3-4,3-5.7,4.9c-0.8,0.9-1.5,1.8-2.1,2.8C1.7,15,0.4,19,0.1,23.3H0v3.5h0.1C0.4,31,1.7,35,3.9,38.4c0.6,1,1.3,1.9,2.1,2.8
	c1.6,1.9,3.5,3.6,5.7,4.9c2.6,1.7,5.6,2.8,8.7,3.4c0.9,0.2,1.9,0.3,2.9,0.4V50h3.5v-0.1c1-0.1,2-0.2,2.9-0.4
	c3.1-0.6,6.1-1.8,8.7-3.4c2.1-1.3,4-3,5.7-4.9c0.8-0.9,1.5-1.8,2.1-2.8c2.2-3.4,3.5-7.4,3.8-11.7H50L49.9,23.3L49.9,23.3z
	 M46.5,23.3h-5.8c-0.2-3-1-5.9-2.2-8.6c1.5-0.5,3-1,4.4-1.6C44.9,16.1,46.2,19.5,46.5,23.3z M23.3,23.3H12.8
	c0.2-2.7,0.9-5.3,2.1-7.7c2.7,0.6,5.5,1,8.4,1.1V23.3z M23.3,26.7v6.6c-2.9,0.1-5.7,0.5-8.4,1.1c-1.1-2.3-1.9-4.9-2.1-7.7H23.3z
	 M26.7,26.7h10.5c-0.2,2.7-0.9,5.3-2.1,7.7c-2.7-0.6-5.5-1-8.4-1.1V26.7z M26.7,23.3v-6.6c2.9-0.1,5.7-0.5,8.4-1.1
	c1.1,2.3,1.9,4.9,2.1,7.7H26.7z M29.6,4c4.3,0.9,8.1,3.2,11.1,6.3c-1.3,0.5-2.5,0.9-3.9,1.3c-1.9-3-4.5-5.6-7.5-7.5
	c-0.1-0.1-0.2-0.1-0.3-0.2C29.3,3.9,29.4,3.9,29.6,4z M33.2,12.5c-2.1,0.4-4.3,0.7-6.5,0.8V6.5C29.3,8,31.5,10.1,33.2,12.5z
	 M23.3,13.2c-2.2-0.1-4.4-0.3-6.5-0.8c1.7-2.4,3.9-4.4,6.5-5.9V13.2z M20.4,4c0.2,0,0.4-0.1,0.6-0.1C20.8,3.9,20.7,4,20.6,4
	c-3,2-5.5,4.5-7.5,7.5c-1.3-0.4-2.6-0.8-3.9-1.3C12.2,7.2,16.1,4.9,20.4,4z M7.1,13.1c1.4,0.6,2.9,1.1,4.4,1.6
	c-1.2,2.6-1.9,5.5-2.2,8.6H3.5C3.8,19.5,5.1,16.1,7.1,13.1z M3.5,26.7h5.8c0.2,3,1,5.9,2.2,8.6c-1.5,0.5-3,1-4.4,1.6
	C5.1,33.9,3.8,30.5,3.5,26.7z M20.4,46c-4.3-0.9-8.1-3.2-11.1-6.3c1.3-0.5,2.5-0.9,3.9-1.3c1.9,3,4.5,5.6,7.5,7.5
	c0.1,0.1,0.2,0.1,0.3,0.2C20.7,46.1,20.6,46.1,20.4,46z M16.8,37.5c2.1-0.4,4.3-0.7,6.5-0.8v6.7C20.7,42,18.5,39.9,16.8,37.5z
	 M26.7,36.8c2.2,0.1,4.4,0.3,6.5,0.8c-1.7,2.4-3.9,4.4-6.5,5.9V36.8z M29.6,46c-0.2,0-0.4,0.1-0.6,0.1c0.1-0.1,0.2-0.1,0.3-0.2
	c3-2,5.5-4.5,7.5-7.5c1.3,0.4,2.6,0.8,3.9,1.3C37.8,42.8,33.9,45.1,29.6,46z M42.9,36.9c-1.4-0.6-2.9-1.1-4.4-1.6
	c1.2-2.6,1.9-5.5,2.2-8.6h5.8C46.2,30.5,44.9,33.9,42.9,36.9z"/>
</svg>
