<svg version="1.1" xmlns="http://www.w3.org/2000/svg" xmlns:xlink="http://www.w3.org/1999/xlink" x="0px" y="0px" viewBox="0 0 50 50" style="enable-background:new 0 0 50 50;" preserveAspectRatio="xMidYMid meet" xml:space="preserve">
<path d="M16.6,11.7C7.4,11.7,0,19.1,0,28.3s7.4,16.6,16.6,16.6c9.1,0,16.6-7.4,16.6-16.6S25.7,11.7,16.6,11.7z
	 M16.6,37.9c-5.3,0-9.6-4.3-9.6-9.6s4.3-9.6,9.6-9.6s9.6,4.3,9.6,9.6S21.9,37.9,16.6,37.9z"/>
<g>
	<path d="M45.4,23.2c0.9,0,1.6-0.7,1.6-1.6v-4.2c0-0.9-0.7-1.6-1.6-1.6H32.3c1.7,2.1,2.9,4.6,3.6,7.3H45.4z"/>
	<path d="M35.7,34h12.7c0.9,0,1.6-0.7,1.6-1.6v-4.2c0-0.9-0.7-1.6-1.6-1.6H36.5c0,0.5,0.1,1,0.1,1.5
		C36.6,30.3,36.3,32.2,35.7,34z"/>
	<path d="M50,10.9V6.7c0-0.9-0.7-1.6-1.6-1.6h-30c-0.9,0-1.6,0.7-1.6,1.6v1.5c4.5,0.1,8.6,1.6,11.9,4.2h19.6
		C49.3,12.5,50,11.8,50,10.9z"/>
	<path d="M27.8,44.8h17.6c0.9,0,1.6-0.7,1.6-1.6v-4.2c0-0.9-0.7-1.6-1.6-1.6H34.3C32.8,40.5,30.5,43,27.8,44.8z"/>
</g>
<g>
	<path d="M13,31.2c0,0,1.8,1.6,3.7,1.6c0.8,0,1.6-0.3,1.6-1.2c0-1.7-7.1-1.9-7.1-6.6c0-2.4,1.7-4.2,4.2-4.7v-2.1h2.4v2
		c2.7,0.3,4,1.7,4,1.7l-1.6,3.1c0,0-1.6-1.4-3.5-1.4c-0.8,0-1.7,0.3-1.7,1.2c0,1.9,7.1,1.7,7.1,6.6c0,2.3-1.6,4.3-4.4,4.8v2h-2.4v-2
		c-2.9-0.4-4.5-2.1-4.5-2.1L13,31.2z"/>
</g>
</svg>
