<svg version="1.1" xmlns="http://www.w3.org/2000/svg" xmlns:xlink="http://www.w3.org/1999/xlink" x="0px" y="0px" viewBox="0 0 50 50" style="enable-background:new 0 0 50 50;" preserveAspectRatio="xMidYMid meet" xml:space="preserve">
<g>
		<rect x="34.1" y="5.8" transform="matrix(-0.7071 -0.7071 0.7071 -0.7071 67.7578 42.6445)" class="st1" width="17.3" height="2.9"/>
	<g>
		<rect x="33.6" y="5.1" transform="matrix(0.7071 -0.7071 0.7071 0.7071 6.3121 28.3263)" class="st1" width="7.5" height="2.9"/>
		<rect x="39.7" y="11.2" transform="matrix(0.7071 -0.7071 0.7071 0.7071 3.7824 34.4336)" class="st1" width="7.5" height="2.9"/>
	</g>
	<rect x="23.2" y="13.9" transform="matrix(-0.7071 -0.7071 0.7071 -0.7071 48.3877 50.6679)" class="st1" width="23" height="2.9"/>
	<path class="st1" d="M0.6,47.4l11.2-11.2l2,2L2.6,49.4c-0.6,0.6-1.5,0.6-2,0h0C0,48.9,0,47.9,0.6,47.4z"/>
	<path class="st1" d="M28.6,9.2l-5.1,5.1l6.1,6.1l-2,2l-6.1-6.1l-4.1,4.1l6.1,6.1l-2,2l-6.1-6.1l-4.1,4.1l6.1,6.1l-2,2l-6.1-6.1
		l-0.9,0.9c-1,1-1.4,2.5-1.1,3.9l2,7.4l7.4,2c1.4,0.4,2.9,0,3.9-1.1l20.2-20.2L28.6,9.2z"/>
</g>
</svg>
