<svg version="1.1" id="Layer_1" xmlns="http://www.w3.org/2000/svg" xmlns:xlink="http://www.w3.org/1999/xlink" x="0px" y="0px" viewBox="0 0 50 50" style="enable-background:new 0 0 50 50;" preserveAspectRatio="xMidYMid meet" xml:space="preserve">
<path d="M35.1,15.9l0.3-4.1c0.1-1.5-0.2-3-0.8-4.3C36.5,4.4,34.4,0,26,0c-6,0-8.5,6-12.7,4.5c0,0-1.5,4,1.2,6.3
	c0,0.4,0,0.8,0,1.3l0.4,3.8c-2,0.1-2.8,1.8-2.8,3.8c0,2.1,0.9,3.8,3,3.8c0.2,0,1.2,0,1.4-0.1l0.1,0.5c0.3,2.6,1.1,4.8,3.2,6.1v4
	c0,0,2.5,2.1,5.1,2.1c2.7,0,5.1-2.1,5.1-2.1v-3.8c2.4-1.2,3.3-3.6,3.6-6.5l0-0.2c0.1,0,1,0,1.1,0c2.1,0,3-1.7,3-3.8
	C37.9,17.7,37,16.1,35.1,15.9z"/>
<path d="M22,50l-1.9-7l2.4-1.7c0,0,0.6,1.3,1.4,1.8l-1,7h4l-1-7c0.8-0.5,1.4-1.8,1.4-1.8l2.4,1.7L28,50h14.7L41,39.8
	c-0.5-3.1-3.9-3.8-6.6-4.5l-2.7-0.7l-0.1,6.3L25,36.1l-6.6,4.8l-0.1-6.4l-2.7,0.8C12.8,36,9.5,36.6,9,39.8L7.4,50H22z"/>
</svg>