<svg version="1.1" xmlns="http://www.w3.org/2000/svg" xmlns:xlink="http://www.w3.org/1999/xlink" x="0px" y="0px" viewBox="0 0 50 50" style="enable-background:new 0 0 50 50;" preserveAspectRatio="xMidYMid meet" xml:space="preserve">
<path d="M29.3,0h-8.5c-1.1,0-2.1,0.9-2.1,2.1v2.7c0,1.1,0.9,2.1,2.1,2.1h8.5c1.1,0,2.1-0.9,2.1-2.1V2.1
	C31.3,0.9,30.4,0,29.3,0z"/>
<path d="M38.9,28.6l-6-5.4c-1-0.9-1.6-2.2-1.6-3.6V19c0-1.1,0.5-2.2,1.3-3c0.6-0.7,1-1.6,0.9-2.6
	c-0.1-1.8-1.8-3.1-3.6-3.1H20c-1.8,0-3.4,1.3-3.6,3.1c-0.1,1,0.3,2,0.9,2.6c0.9,0.9,1.3,2.3,1.3,3.6c0,0,0,0,0,0
	c0,1.4-0.6,2.7-1.6,3.6l-6,5.4c-2.3,2-3.6,4.9-3.6,8v9.1c0,2.4,1.9,4.3,4.3,4.3h26.2c2.4,0,4.3-1.9,4.3-4.3v-9.1
	C42.5,33.5,41.2,30.6,38.9,28.6z M32.9,41.3l-3.8,3.8L25,41l-4.1,4.1l-3.8-3.8l4.1-4.1l-4.1-4.1l3.8-3.8l4.1,4.1l4.1-4.1l3.8,3.8
	l-4.1,4.1L32.9,41.3z"/>
</svg>
