<svg version="1.1" xmlns="http://www.w3.org/2000/svg" xmlns:xlink="http://www.w3.org/1999/xlink" x="0px" y="0px" viewBox="0 0 50 50" style="enable-background:new 0 0 50 50;" preserveAspectRatio="xMidYMid meet" xml:space="preserve">
<path d="M42.3,0H7.7C6.5,0,5.6,1,5.6,2.2v45.7c0,1.2,1,2.2,2.2,2.2h34.6c1.2,0,2.2-1,2.2-2.2V2.2C44.4,1,43.5,0,42.3,0z
	 M18.5,43.1h-6v-6h6V43.1z M18.5,33.6h-6v-6h6V33.6z M18.5,24.1h-6v-6h6V24.1z M28,43.1h-6v-6h6V43.1z M28,33.6h-6v-6h6V33.6z
	 M28,24.1h-6v-6h6V24.1z M37.5,43.1h-6v-6h6V43.1z M37.5,33.6h-6v-6h6V33.6z M37.5,24.1h-6v-6h6V24.1z M37.5,14.6h-25V6.9h25V14.6z"
	/>
</svg>
