<svg version="1.1" xmlns="http://www.w3.org/2000/svg" xmlns:xlink="http://www.w3.org/1999/xlink" x="0px" y="0px" viewBox="0 0 50 50" style="enable-background:new 0 0 50 50;" preserveAspectRatio="xMidYMid meet" xml:space="preserve">
<path d="M43.9,44.2c0.3-1,2.5-2.8,3.3-4.7c0.8-2.1,0.8-4.8,0.7-6.1c-0.1-1.3,0.7-3.2,1.2-4.2c0.6-1,1.9-5.5-0.8-7.4
	c-4-2.5-11.9-1.7-11.9-1.7s2.1-5.4,2.6-12.3c0.2-3.2-0.6-6.7-2.6-7.5c-2.3-1-3.9,1.3-4.2,2.8c-1.2,7.2-9.3,18.5-13.3,18.5v23.6
	c0,0,10.6,5.7,20.1,4.4C42.6,49,43.6,45.2,43.9,44.2z"/>
<path d="M12.8,20.4H0v26h12.8c1.5,0,2.7-1.2,2.7-2.7V23.1C15.5,21.6,14.3,20.4,12.8,20.4z M8.3,42.9
	c-2,0-3.7-1.7-3.7-3.7s1.7-3.7,3.7-3.7s3.7,1.7,3.7,3.7S10.4,42.9,8.3,42.9z"/>
</svg>
