<svg version="1.1" xmlns="http://www.w3.org/2000/svg" xmlns:xlink="http://www.w3.org/1999/xlink" x="0px" y="0px" viewBox="0 0 50 50" style="enable-background:new 0 0 50 50;" preserveAspectRatio="xMidYMid meet" xml:space="preserve">
<path d="M42.3,0H7.7C6.5,0,5.6,1,5.6,2.2v45.7c0,1.2,1,2.2,2.2,2.2h34.6c1.2,0,2.2-1,2.2-2.2V2.2C44.4,1,43.5,0,42.3,0z
 M34.2,35.3c-1.6,1.6-3.7,2.8-6,3.4c-1,0.3-2.1,0.4-3.2,0.4c-1.1,0-2.2-0.2-3.2-0.4c-2.3-0.6-4.4-1.8-6-3.4
c-2.4-2.4-3.9-5.7-3.9-9.3s1.5-6.9,3.9-9.3c1.6-1.6,3.7-2.8,6-3.4c1-0.3,2.1-0.4,3.2-0.4c1.1,0,2.2,0.2,3.2,0.4
c2.3,0.6,4.4,1.8,6,3.4c2.4,2.4,3.9,5.7,3.9,9.3S36.6,32.9,34.2,35.3z"/>
<g>
	<path d="M18.4,27.7h-3c0.6,3.5,3.1,6.3,6.4,7.4c0.1,0,0.3,0.1,0.4,0.1c-0.1-0.1-0.1-0.1-0.2-0.2
		C20.1,33.1,18.8,30.6,18.4,27.7z"/>
	<path d="M22,16.9c0.1-0.1,0.1-0.1,0.2-0.2c-0.1,0-0.3,0.1-0.4,0.1c-3.3,1.1-5.7,4-6.4,7.4h3
		C18.8,21.4,20.1,18.9,22,16.9z"/>
	<path d="M21.8,27.7c0.4,2.2,1.5,4.2,3.2,5.6c1.6-1.4,2.8-3.4,3.2-5.6H21.8z"/>
	<path d="M28.2,24.3c-0.4-2.2-1.5-4.2-3.2-5.6c-1.6,1.4-2.8,3.4-3.2,5.6H28.2z"/>
	<path d="M28.2,16.8c-0.1,0-0.3-0.1-0.4-0.1c0.1,0.1,0.1,0.1,0.2,0.2c1.9,2,3.2,4.5,3.6,7.4h3
		C33.9,20.8,31.5,18,28.2,16.8z"/>
	<path d="M28,35.1c-0.1,0.1-0.1,0.1-0.2,0.2c0.1,0,0.3-0.1,0.4-0.1c3.3-1.1,5.7-4,6.4-7.4h-3
		C31.2,30.6,29.9,33.1,28,35.1z"/>
</g>
</svg>
