<svg version="1.1" xmlns="http://www.w3.org/2000/svg" xmlns:xlink="http://www.w3.org/1999/xlink" x="0px" y="0px" viewBox="0 0 50 50" style="enable-background:new 0 0 50 50;" preserveAspectRatio="xMidYMid meet" xml:space="preserve">
<path d="M42.3,0H7.7C6.5,0,5.6,1,5.6,2.2v45.7c0,1.2,1,2.2,2.2,2.2h34.6c1.2,0,2.2-1,2.2-2.2V2.2C44.4,1,43.5,0,42.3,0z
	 M33.4,44H16.6V27.3h16.7V44z M33.4,16.3v6.4H16.6V6h13l1.8-1.9l7.1,7.1L33.4,16.3z"/>
<g>
	<polygon points="17.6,15.6 20.4,12.8 23.8,16.2 31.6,8.4 34.4,11.1 23.8,21.7 	"/>
</g>
</svg>
