<svg version="1.1" id="Layer_1" xmlns="http://www.w3.org/2000/svg" xmlns:xlink="http://www.w3.org/1999/xlink" x="0px" y="0px" viewBox="0 0 50 50" style="enable-background:new 0 0 50 50;" preserveAspectRatio="xMidYMid meet" xml:space="preserve">
<path d="M26,0C-0.6,26.6,9.1,48.3,24.2,49.9v-7.6l-6.7-6.7c-0.7-0.7-0.7-1.8,0-2.4c0.7-0.7,1.8-0.7,2.4,0l4.3,4.3v-8.7
	l-6.7-6.7c-0.7-0.7-0.7-1.8,0-2.4v0c0.7-0.7,1.8-0.7,2.4,0l4.3,4.3v-11c0-1,0.8-1.7,1.7-1.7s1.7,0.8,1.7,1.7v11l4.3-4.3
	c0.7-0.7,1.8-0.7,2.4,0l0,0c0.7,0.7,0.7,1.8,0,2.4l-6.7,6.7v8.7l4.3-4.3c0.7-0.7,1.8-0.7,2.4,0c0.7,0.7,0.7,1.8,0,2.4l-6.7,6.7v7.6
	C42.8,48.3,52.5,26.6,26,0z"/>
</svg>
