<svg version="1.1" xmlns="http://www.w3.org/2000/svg" xmlns:xlink="http://www.w3.org/1999/xlink" x="0px" y="0px" viewBox="0 0 50 50" style="enable-background:new 0 0 50 50;" preserveAspectRatio="xMidYMid meet" xml:space="preserve">
<path d="M40.6,2.9C33.8-2,24.3-0.3,19.5,6.5L5.8,25.9C1,32.7,2.6,42.2,9.4,47s16.3,3.2,21.1-3.6l13.7-19.4
	C49,17.1,47.4,7.7,40.6,2.9z M26.4,41.9c-3.4,2.3-7.7,3.1-11.7,2c-2.5-0.7-3.6-3.6-2.1-5.7c0.9-1.3,2.5-1.8,4-1.4c2,0.5,4,0.2,5.7-1
	c1.3-0.9,2.9-0.9,4.2,0C28.6,37.4,28.5,40.5,26.4,41.9z M34.2,31.4L15.8,18.5l6.9-9.7c3.6-5.1,10.6-6.3,15.6-2.7s6.3,10.6,2.7,15.6
	L34.2,31.4z"/>
</svg>
