<svg version="1.1" id="Layer_1" xmlns="http://www.w3.org/2000/svg" xmlns:xlink="http://www.w3.org/1999/xlink" x="0px" y="0px" viewBox="0 0 50 50" style="enable-background:new 0 0 50 50;" preserveAspectRatio="xMidYMid meet" xml:space="preserve">
<path d="M47.1,16.9l-0.2,0l0.2-0.1l-12.3-0.1L41,6.3l-11.7,5.9L25,0.1l-4.3,12.1L9,6.3l6.2,10.4L2.9,16.8l0.2,0.1l-0.2,0l0.5,0.2
	l8.4,4.9l-7.8,2.8l10.7,1.8c0.2,0.4,0.4,0.7,0.4,0.7L13.9,29c-0.6,0.8-0.5,1.9,0.3,2.5l1,0.7l-2.9,6.1c-0.4,0.8-0.2,1.8,0.5,2.4
	l1.8,1.6c0,0-1.9,7.3-1.9,7.7H25c5.3-2.7,7.2-7.9,7.2-7.9s0,4,0,4.8c0,0.8,1.8,3.1,1.8,3.1h3.3c0-0.5-1.9-7.7-1.9-7.7l1.8-1.6
	c0.7-0.6,0.9-1.6,0.5-2.4l-2.9-6.1l1-0.7c0.8-0.6,1-1.8,0.3-2.5l-1.3-1.7c0,0,0.2-0.2,0.4-0.7l10.7-1.8L38.1,22l8.4-4.9L47.1,16.9z
	 M31.9,37.6C31.4,40.8,27.6,42,25,42s-2-3-0.1-3c2,0,2.7-1.6,3-2.9c0.1-0.5-0.4-0.9-0.9-0.8c-0.9,0.4-2,0.2-2,0.2V29
	c0-0.5-0.4-0.9-0.8-0.9l-3.5-0.5c-0.4-0.1-0.5-0.7-0.1-0.8C22.9,26.2,25,25,25,25s4.1,2.3,6.9,2.3C31.9,27.3,32.4,34.3,31.9,37.6z
	 M25.2,21.5c-5,0-8.4,1.6-8.4,1.6c0-5.6,8.4-5.8,8.4-5.8s8.4,0.2,8.4,5.8C33.7,23.1,30.2,21.5,25.2,21.5z"/>
</svg>
