<svg version="1.1" xmlns="http://www.w3.org/2000/svg" xmlns:xlink="http://www.w3.org/1999/xlink" x="0px" y="0px" viewBox="0 0 50 50" style="enable-background:new 0 0 50 50;" preserveAspectRatio="xMidYMid meet" xml:space="preserve">
<path d="M25,4.9C11.2,4.9-0.1,16.2-0.1,30H0c0-2.8,2.2-5.1,5-5.1s5,2.3,5,5.1H10c0-2.8,2.2-5.1,5-5.1s5,2.3,5,5.1H20
	c0-2.8,2.2-5.1,5-5.1c2.7,0,5,2.3,5,5.1H30c0-2.8,2.2-5.1,5-5.1c2.7,0,5,2.3,5,5.1h0.1c0-2.8,2.2-5.1,5-5.1c2.7,0,5,2.3,5,5.1h0.1
	C50.1,16.2,38.8,4.9,25,4.9z"/>
<path d="M25,28.3c-0.6,0-1.2,0.1-1.7,0.3l0,14.5c0,1.8-1.5,3.3-3.3,3.3c-1.8,0-3.3-1.5-3.3-3.3V41c0-1-0.8-1.7-1.7-1.7
	s-1.7,0.8-1.7,1.7v2.2c0,3.7,3,6.8,6.8,6.8c1.2,0,2.3-0.3,3.3-0.9c2.1-1.2,3.5-3.4,3.5-5.9l0-14.5C26.2,28.5,25.6,28.3,25,28.3z"/>
<path d="M25,5.2c0.6,0,1.2,0,1.7,0.1V1.7C26.7,0.8,26,0,25,0s-1.7,0.8-1.7,1.7v3.6C23.8,5.3,24.4,5.2,25,5.2z"/>
</svg>
