<svg version="1.1" xmlns="http://www.w3.org/2000/svg" xmlns:xlink="http://www.w3.org/1999/xlink" x="0px" y="0px" viewBox="0 0 50 50" style="enable-background:new 0 0 50 50;" preserveAspectRatio="xMidYMid meet" xml:space="preserve">
<path d="M25,17L25,17c-0.4,0-0.9-0.1-1.6-0.3c-0.4,7-2.1,15.8-2.3,19.6h7.7c-0.1-3.8-1.9-12.6-2.3-19.6
	C25.9,16.9,25.4,17,25,17z"/>
<path d="M48.3,28.6L42.7,9.5c0.3,0,0.6,0,1,0c0.6,0,1.1-0.5,1.1-1.1c0-0.6-0.5-1.1-1.1-1.1c-8,0-16.1,0.6-18.7,0.6
	c-2.6,0-10.7-0.6-18.7-0.6c-0.6,0-1.1,0.5-1.1,1.1c0,0.6,0.5,1.1,1.1,1.1c0.3,0,0.6,0,0.9,0L1.6,28.6H0.2c0,4.3,3.5,7.8,7.8,7.8
	s7.8-3.5,7.8-7.8h-1.5L8.6,9.7c6.2,0.7,14.1,4,16.4,4h0c2.3,0,10.1-3.3,16.3-4l-5.5,18.9h-1.5c0,4.3,3.5,7.8,7.8,7.8
	s7.8-3.5,7.8-7.8H48.3z M12.5,28.6H3.3l4.6-17c0,0,0,0,0,0L12.5,28.6z M37.5,28.6l4.6-17c0,0,0,0,0,0l4.6,17H37.5z"/>
<path d="M25,8.4c0.4,0,0.8-0.1,1.4-0.1c0-0.6,0-3.2,0-3.8c0-0.8-0.6-1.4-1.4-1.4c-0.8,0-1.4,0.6-1.4,1.4
	c0,0.6,0,3.2,0,3.8C24.2,8.3,24.6,8.4,25,8.4z"/>
<path d="M35.4,43.2H33v-1.7c0-1-0.8-1.8-1.8-1.8H18.8c-1,0-1.8,0.8-1.8,1.8v1.7h-2.4c-2.4,0-4.4,2-4.4,4.4v2.4h7.7h22
	v-2.4C39.8,45.2,37.9,43.2,35.4,43.2z"/>
</svg>
