<svg version="1.1" xmlns="http://www.w3.org/2000/svg" xmlns:xlink="http://www.w3.org/1999/xlink" x="0px" y="0px" viewBox="0 0 50 50" style="enable-background:new 0 0 50 50;" preserveAspectRatio="xMidYMid meet" xml:space="preserve">
<g>
	<g>
		<path d="M2.9,38.6l4.1,10.1c0.2,0.6,0.9,0.9,1.5,0.6l2.1-0.9l-5-12.2l-2.1,0.9C3,37.3,2.7,38,2.9,38.6z"/>
		<polygon points="8.7,34.9 13.7,47.1 16.9,45.8 11.8,33.7 			"/>
	</g>
	<path d="M44.2,20.2L15,32.4l5,12.2l29.3-12.1c0.6-0.2,0.9-0.9,0.6-1.5l-4.1-10.1C45.5,20.3,44.8,20,44.2,20.2z
		 M19.4,34.2l11.9-4.8l2.4,6l-11.9,4.8L19.4,34.2z"/>
</g>
<g>
	<path d="M11.3,7C13.8,13.4,1,17.6,0.1,27.6c-0.2,2,0.1,4.3,1.1,6.9l3.1-1.3l-0.7-1.7c-2.9-8.8,8.5-14.2,10.8-21.1
		C15,8.8,15,7.2,14.3,5.3l0,0l-0.9-2.1l-3.1,1.3L11.3,7z"/>
	<path d="M21.3,7.6c0-1.9-0.3-3.8-1-5.3l-0.7-1.6l0,0l-3.1,1.3l0.8,1.9c1.4,3.7,1.5,7.4-3.4,13.4
		C11.5,20,9,22,7.7,24.4c-1,1.9-1.4,4.2-0.2,7.4l3.3-1.4c-1.6-6.5,2.7-6,8.2-14.3C20.6,13.6,21.3,10.1,21.3,7.6z"/>
</g>
</svg>
