<svg version="1.1" xmlns="http://www.w3.org/2000/svg" xmlns:xlink="http://www.w3.org/1999/xlink" x="0px" y="0px" viewBox="0 0 50 50" style="enable-background:new 0 0 50 50;" preserveAspectRatio="xMidYMid meet" xml:space="preserve">
<g>
	<g>
		<path d="M34.6,0C28.8,0,24,4.8,24,10.6c0,8.1,6.5,16.3,10.6,20.4c4.1-4.1,10.6-12.4,10.6-20.4C45.3,4.8,40.5,0,34.6,0
			z M38.5,16.2L34.7,14l-3.8,2.2l0.9-4.3L28.5,9l4.4-0.5l1.7-4l1.8,4l4.4,0.4l-3.2,3L38.5,16.2z"/>
	</g>
	<polygon points="15.7,50 39.5,50 26.8,37.3 15.7,37.3"/>
	<path d="M34.6,35.8C29.3,30.5,21,20.8,20.3,10.4H4.7L44.4,50V23.6C41.4,28.6,37.6,32.9,34.6,35.8z"/>
	<rect x="4.7" y="37.3" width="7.6" height="12.7"/>
	<polygon points="4.7,15.2 4.7,33.8 23.3,33.8"/>
</g>
</svg>
