<svg version="1.1" xmlns="http://www.w3.org/2000/svg" xmlns:xlink="http://www.w3.org/1999/xlink" x="0px" y="0px" viewBox="0 0 50 50" style="enable-background:new 0 0 50 50;" preserveAspectRatio="xMidYMid meet" xml:space="preserve">
<g>
	<path d="M46.7,3.9L46.7,3.9c-0.4-1.9-2.2-3.4-4.2-3.4c-2.4,0-4.4,1.9-4.4,4.4s1.9,4.4,4.4,4.4c1,0,1.8-0.3,2.6-0.9
		c0.8,0.5,1.9,1.9,0.5,5.8C43.4,19.8,39.4,29,35.1,29c-4.2,0-12.7-15.3-10.6-20.6C25.2,9,26.1,9.3,27,9.3c2.4,0,4.4-1.9,4.4-4.4
		S29.4,0.6,27,0.6c-1.9,0-3.5,1.2-4.1,2.9l0,0c0,0-4.7,2.6-2.9,8.6c1.9,6,5.4,16.4,11.3,19.9c0,0-0.3,2.8,1.5,3.9
		c0,0-0.6,9.7-10.2,9.7c-9.7,0-11.4-6.6-11.4-6.6l0,0c3.6-1,6.3-4.3,6.3-8.2c0-4.7-3.8-8.5-8.5-8.5c-4.7,0-8.5,3.8-8.5,8.5
		c0,3.9,2.6,7.2,6.2,8.2l0,0c0,0,1.4,10.5,15.9,10.5c14.5,0,13.9-13.2,13.9-13.2s2.2-2,2.3-4.4C38.8,31.8,57.4,11.3,46.7,3.9z
		 M3.9,30.7c0-2.8,2.3-5.2,5.2-5.2c2.8,0,5.2,2.3,5.2,5.2s-2.3,5.2-5.2,5.2C6.2,35.9,3.9,33.5,3.9,30.7z"/>
	<circle cx="9" cy="30.7" r="1.9"/>
</g>
</svg>
