<svg version="1.1" xmlns="http://www.w3.org/2000/svg" xmlns:xlink="http://www.w3.org/1999/xlink" x="0px" y="0px" viewBox="0 0 50 50" style="enable-background:new 0 0 50 50;" preserveAspectRatio="xMidYMid meet" xml:space="preserve">
<path d="M49,21.7C48.2,10.6,39.4,1.8,28.3,1c-0.5,0-1-0.1-1.5-0.1s-1,0-1.5,0.1v3.1v17.5v3.1h3.1h17.5H49
	c0-0.5,0.1-1,0.1-1.5S49,22.2,49,21.7z M28.3,21.7V4.1c9.4,0.7,16.8,8.2,17.5,17.5H28.3z"/>
<g>
	<path d="M20.7,29.3V8.7V5.6C9.1,6.4,0,16,0,27.8C0,40,10,50,22.2,50c11.8,0,21.4-9.1,22.2-20.7h-3.1H20.7z"/>
</g>
</svg>
