<svg version="1.1" xmlns="http://www.w3.org/2000/svg" xmlns:xlink="http://www.w3.org/1999/xlink" x="0px" y="0px" viewBox="0 0 50 50" style="enable-background:new 0 0 50 50;" preserveAspectRatio="xMidYMid meet" xml:space="preserve">
<path d="M30.4,30.4c-1.4,1.4-3.3,2.3-5.4,2.3c-4.2,0-7.7-3.4-7.7-7.7s3.4-7.7,7.7-7.7c2.1,0,4,0.9,5.4,2.3l4.9-4.9
	C32.7,12,29,10.4,25,10.4c-8.1,0-14.6,6.5-14.6,14.6S16.9,39.6,25,39.6c4,0,7.7-1.6,10.3-4.3L30.4,30.4z"/>
<path d="M39.5,36.2c-3.4,4.4-8.6,7.2-14.5,7.2s-11.2-2.8-14.5-7.2H0.2v6.9h0v0c0,3.8,3.1,6.9,6.9,6.9h35.9
	c3.8,0,6.9-3.1,6.9-6.9v0h0v-6.9H39.5z"/>
<path d="M50,6.9L50,6.9C50,3.1,46.9,0,43.1,0H7.2C3.3,0,0.2,3.1,0.2,6.9v0h0v6.9h10.2c3.4-4.4,8.6-7.2,14.5-7.2
	s11.2,2.8,14.5,7.2H50L50,6.9L50,6.9z"/>
<circle cx="25" cy="25" r="4.3"/>
</svg>
