<svg version="1.1" xmlns="http://www.w3.org/2000/svg" xmlns:xlink="http://www.w3.org/1999/xlink" x="0px" y="0px" viewBox="0 0 50 50" style="enable-background:new 0 0 50 50;" preserveAspectRatio="xMidYMid meet" xml:space="preserve">
<g>
	<circle cx="25" cy="21" r="7.7"/>
	<g>
		<path d="M3.5,21c0-5.9,2.4-11.3,6.3-15.2L7.3,3.3C2.8,7.8,0,14.1,0,21s2.8,13.2,7.3,17.7l2.4-2.4
			C5.9,32.3,3.5,26.9,3.5,21z"/>
		<path d="M46.5,21c0,5.9-2.4,11.3-6.3,15.2l2.4,2.4C47.2,34.2,50,27.9,50,21S47.2,7.8,42.7,3.3l-2.4,2.4
			C44.1,9.7,46.5,15.1,46.5,21z"/>
		<path d="M39.6,21c0,4-1.6,7.7-4.3,10.3l2.4,2.4c3.3-3.3,5.3-7.8,5.3-12.8s-2-9.5-5.3-12.8l-2.4,2.4
			C38,13.3,39.6,17,39.6,21z"/>
		<path d="M10.4,21c0-4,1.6-7.7,4.3-10.3l-2.4-2.4C8.9,11.5,6.9,16,6.9,21s2,9.5,5.3,12.8l2.4-2.4
			C12,28.7,10.4,25,10.4,21z"/>
	</g>
</g>
<path d="M31,50l-2.5-14.8c-1.1,0.3-2.3,0.4-3.4,0.4H25c-1.2,0-2.3-0.2-3.4-0.4L19,50H31z"/>
</svg>
