<svg version="1.1" xmlns="http://www.w3.org/2000/svg" xmlns:xlink="http://www.w3.org/1999/xlink" x="0px" y="0px" viewBox="0 0 50 50" style="enable-background:new 0 0 50 50;" preserveAspectRatio="xMidYMid meet" xml:space="preserve">
<path d="M46.5,13.8h-4.7V7.4c0-1-0.8-1.7-1.7-1.7H9.9c-1,0-1.7,0.8-1.7,1.7v6.5H3.5c-1.9,0-3.5,1.5-3.5,3.5v6
	c0,1,0.8,1.7,1.7,1.7s1.7-0.8,1.7-1.7v-1.7v-4.3h0.3h4.4v25.4c0,1,0.8,1.7,1.7,1.7h7.6h22.6c1,0,1.7-0.8,1.7-1.7V17.3h4.7v6
	c0,1,0.8,1.7,1.7,1.7s1.7-0.8,1.7-1.7v-1.7v-4.3C50,15.4,48.5,13.8,46.5,13.8z M17,36.8h-3.6c-1,0-1.7-0.8-1.7-1.7s0.8-1.7,1.7-1.7
	H17c1,0,1.7,0.8,1.7,1.7S17.9,36.8,17,36.8z M36.6,36.8H33c-1,0-1.7-0.8-1.7-1.7s0.8-1.7,1.7-1.7h3.6c1,0,1.7,0.8,1.7,1.7
	S37.6,36.8,36.6,36.8z M38.3,28.1c0,1-0.8,1.7-1.7,1.7H17.5h-4.1c-1,0-1.7-0.8-1.7-1.7V17.8c0-1,0.8-1.7,1.7-1.7h23.2
	c1,0,1.7,0.8,1.7,1.7V28.1z M36.6,12.6H17.5h-4.1c-1,0-1.7-0.8-1.7-1.7s0.8-1.7,1.7-1.7h23.2c1,0,1.7,0.8,1.7,1.7
	S37.6,12.6,36.6,12.6z"/>
<path d="M11.7,50v-9.2h6.9V50H11.7z"/>
<path d="M31.4,50v-9.2h6.9V50H31.4z"/>
</svg>
