<svg version="1.1" xmlns="http://www.w3.org/2000/svg" xmlns:xlink="http://www.w3.org/1999/xlink" x="0px" y="0px" viewBox="0 0 50 50" style="enable-background:new 0 0 50 50;" preserveAspectRatio="xMidYMid meet" xml:space="preserve">
<path d="M26.2,0.8C26,0.3,25.5,0,25,0s-1,0.3-1.2,0.8C20.2,11.2,8.3,24,8.3,34.3C8.3,43,16.3,50,25,50
	c8.7,0,16.7-7,16.7-15.7C41.7,24,29.8,11.2,26.2,0.8z M20.4,45.7c-3.6-1.3-6.4-4.2-7.8-7.8c-0.8-2.2,0.8-4.6,3.2-4.6
	c1.4,0,2.7,0.9,3.2,2.2c0.6,1.8,2,3.1,3.8,3.8c1.3,0.5,2.2,1.8,2.2,3.2C25,44.9,22.6,46.5,20.4,45.7z"/>
</svg>
